fontCallback.success({"glyphs":{"S":{"x_min":18.984375,"x_max":831.5,"ha":900,"o":"m 831 980 l 793 766 q 657 823 724 804 q 526 841 590 841 q 388 811 438 841 q 339 726 339 780 q 361 672 339 691 q 451 634 383 653 l 547 608 q 725 510 668 574 q 781 344 781 446 q 668 80 781 179 q 366 -19 556 -19 q 190 -1 278 -19 q 18 52 102 16 l 56 273 q 213 195 137 221 q 364 169 290 169 q 496 206 445 169 q 546 299 546 242 q 523 357 546 337 q 424 400 501 378 l 328 426 q 170 518 222 455 q 119 682 119 581 q 228 935 119 840 q 521 1030 337 1030 q 673 1018 595 1030 q 831 980 750 1005 "},"¦":{"x_min":158.703125,"x_max":297.0625,"ha":456,"o":"m 297 971 l 297 457 l 158 457 l 158 971 l 297 971 m 297 276 l 297 -237 l 158 -237 l 158 276 l 297 276 "},"/":{"x_min":-120.375,"x_max":542.25,"ha":456,"o":"m 400 1012 l 542 1012 l 21 -128 l -120 -128 l 400 1012 "},"y":{"x_min":0,"x_max":858.625,"ha":815,"o":"m 82 759 l 288 759 l 382 233 l 625 759 l 858 759 l 425 -71 q 291 -256 353 -212 q 132 -299 229 -299 l 0 -299 l 22 -140 l 91 -140 q 174 -120 145 -140 q 227 -50 204 -100 l 247 -9 l 82 759 "},"฿":{"x_min":46.125,"x_max":849.828125,"ha":928,"o":"m 393 -204 l 295 -204 l 330 0 l 46 0 l 201 891 l 485 891 l 514 1055 l 613 1055 l 584 890 q 794 834 731 883 q 845 655 866 778 q 795 544 832 590 q 697 476 757 499 q 796 397 765 455 q 810 255 825 339 q 691 63 788 126 q 429 0 596 1 l 393 -204 m 356 149 l 397 383 l 330 383 l 290 149 l 356 149 m 495 381 l 455 151 q 529 179 500 157 q 579 267 569 208 q 560 354 589 325 q 495 381 539 375 m 424 539 l 457 728 l 391 728 l 358 539 l 424 539 m 555 723 l 524 543 q 568 563 549 549 q 607 634 599 587 q 592 704 615 679 q 555 723 579 718 "},"":{"x_min":20.34375,"x_max":809.796875,"ha":859,"o":"m 538 558 q 444 604 516 604 q 324 546 373 604 q 257 379 276 488 q 249 290 249 335 q 271 200 249 246 q 366 153 294 153 q 486 211 438 153 q 552 379 534 269 q 560 467 560 423 q 538 558 560 512 m 409 1055 l 809 1055 l 784 906 l 421 906 q 316 854 316 906 q 345 803 316 829 q 476 777 373 777 q 721 687 652 777 q 790 480 790 596 q 780 379 790 433 q 630 86 748 191 q 335 -19 512 -19 q 89 71 159 -19 q 20 278 20 162 q 29 379 20 325 q 217 700 67 594 q 148 807 154 769 q 142 864 142 845 q 222 1010 142 956 q 409 1055 287 1055 "},"Á":{"x_min":-81.71875,"x_max":863.734375,"ha":967,"o":"m 613 184 l 249 184 l 159 0 l -81 0 l 433 1012 l 702 1012 l 863 0 l 639 0 l 613 184 m 338 368 l 582 368 l 528 758 l 338 368 m 631 1287 l 802 1287 l 607 1108 l 481 1108 l 631 1287 "},"g":{"x_min":25.09375,"x_max":852.53125,"ha":895,"o":"m 522 128 q 415 31 470 62 q 297 0 361 0 q 113 83 181 0 q 46 309 46 166 q 69 463 46 386 q 137 608 93 540 q 260 733 191 690 q 410 776 330 776 q 531 745 482 776 q 613 647 580 714 l 632 759 l 852 759 l 737 99 q 585 -202 701 -104 q 263 -299 470 -299 q 141 -288 200 -299 q 25 -255 82 -278 l 57 -66 q 161 -121 109 -103 q 267 -139 212 -139 q 434 -87 375 -139 q 512 76 492 -35 l 522 128 m 461 601 q 327 520 381 601 q 274 318 274 440 q 302 212 274 248 q 386 176 331 176 q 520 256 466 176 q 573 457 573 337 q 544 564 573 527 q 461 601 516 601 "},"²":{"x_min":56.296875,"x_max":539.1875,"ha":547,"o":"m 259 567 l 489 567 l 468 453 l 56 453 l 75 556 l 298 737 q 370 810 347 776 q 394 872 394 843 q 375 914 394 899 q 320 930 355 930 q 233 914 278 930 q 145 869 188 899 l 167 995 q 263 1022 217 1013 q 351 1030 308 1030 q 490 993 442 1030 q 539 889 539 956 q 506 785 539 835 q 400 677 473 734 l 259 567 "},"ë":{"x_min":45.4375,"x_max":800.296875,"ha":848,"o":"m 786 351 l 778 312 l 267 312 q 266 300 267 308 q 265 288 265 293 q 305 178 265 215 q 425 141 345 141 q 571 164 495 141 q 732 233 648 187 l 698 44 q 540 -3 619 12 q 379 -19 461 -19 q 132 62 219 -19 q 45 294 45 144 q 72 462 45 381 q 153 612 100 544 q 304 735 217 693 q 498 777 392 777 q 718 695 637 777 q 800 474 800 613 q 796 417 800 447 q 786 351 793 387 m 579 462 q 582 480 581 471 q 583 498 583 489 q 554 584 583 552 q 474 616 524 616 q 365 577 411 616 q 297 462 320 538 l 579 462 m 356 1074 l 501 1074 l 471 908 l 327 908 l 356 1074 m 599 1074 l 742 1074 l 713 908 l 569 908 l 599 1074 "},"Î":{"x_min":26.453125,"x_max":549.828125,"ha":465,"o":"m 204 1012 l 438 1012 l 261 0 l 26 0 l 204 1012 m 244 1287 l 456 1287 l 549 1108 l 446 1108 l 345 1218 l 204 1108 l 95 1108 l 244 1287 "},"Ꙅ":{"x_min":-10.5,"x_max":795.40625,"ha":900,"o":"m 174 980 q 345 1018 264 1005 q 502 1030 427 1030 q 740 949 667 1030 q 788 716 814 868 q 691 524 766 596 q 473 421 615 453 l 378 398 q 259 352 291 378 q 218 279 227 326 q 245 198 209 226 q 358 169 281 169 q 520 195 434 169 q 702 273 606 221 l 663 52 q 479 -1 570 16 q 302 -19 388 -19 q 43 62 119 -19 q -2 311 -31 143 q 97 507 20 438 q 330 611 173 577 l 435 633 q 539 672 509 649 q 578 735 570 695 q 552 815 588 790 q 431 841 515 841 q 294 822 368 841 q 137 766 218 803 l 174 980 "},"e":{"x_min":45.4375,"x_max":800.296875,"ha":848,"o":"m 786 351 l 778 312 l 267 312 q 266 300 267 308 q 265 288 265 293 q 305 178 265 215 q 425 141 345 141 q 571 164 495 141 q 732 233 648 187 l 698 44 q 540 -3 619 12 q 379 -19 461 -19 q 132 62 219 -19 q 45 294 45 144 q 72 462 45 381 q 153 612 100 544 q 304 735 217 693 q 498 777 392 777 q 718 695 637 777 q 800 474 800 613 q 796 417 800 447 q 786 351 793 387 m 579 462 q 582 480 581 471 q 583 498 583 489 q 554 584 583 552 q 474 616 524 616 q 365 577 411 616 q 297 462 320 538 l 579 462 "},"Ã":{"x_min":-81.71875,"x_max":863.734375,"ha":967,"o":"m 613 184 l 249 184 l 159 0 l -81 0 l 433 1012 l 702 1012 l 863 0 l 639 0 l 613 184 m 338 368 l 582 368 l 528 758 l 338 368 m 575 1143 l 544 1168 q 520 1185 530 1181 q 499 1190 510 1190 q 461 1168 477 1190 q 438 1108 445 1146 l 355 1108 q 410 1242 370 1195 q 508 1289 451 1289 q 551 1281 531 1289 q 592 1254 571 1273 l 624 1226 q 645 1213 634 1218 q 666 1208 656 1208 q 706 1229 690 1208 q 728 1289 722 1249 l 813 1289 q 756 1155 796 1202 q 660 1108 716 1108 q 617 1116 636 1108 q 575 1143 598 1123 "},"J":{"x_min":-207.53125,"x_max":438.8125,"ha":465,"o":"m 204 1012 l 438 1012 l 278 98 q 140 -188 243 -99 q -160 -278 36 -278 l -207 -278 l -172 -80 l -136 -80 q -17 -34 -63 -80 q 44 98 28 10 l 204 1012 "},"»":{"x_min":71.21875,"x_max":735.875,"ha":812,"o":"m 71 91 l 101 263 l 311 419 l 155 569 l 181 720 l 437 469 l 416 343 l 71 91 m 369 91 l 400 263 l 609 419 l 452 569 l 479 720 l 735 469 l 714 343 l 369 91 "},"ꙮ":{"x_min":28.96875,"x_max":1172.1875,"ha":1201,"o":"m 671 14 l 760 14 l 741 -90 l 652 -90 l 671 14 m 316 14 l 405 14 l 387 -90 l 297 -90 l 316 14 m 813 826 l 902 826 l 884 720 l 794 720 l 813 826 m 457 826 l 547 826 l 529 720 l 439 720 l 457 826 m 210 421 l 299 421 l 281 315 l 191 315 l 210 421 m 919 421 l 1010 421 l 991 315 l 901 315 l 919 421 m 354 497 q 276 543 330 543 q 182 497 221 543 q 128 372 142 451 q 137 246 113 292 q 216 200 161 200 q 310 246 270 200 q 363 372 349 292 q 354 497 377 451 m 601 902 q 524 948 578 948 q 430 902 470 948 q 376 777 389 856 q 386 652 362 697 q 464 606 410 606 q 558 652 518 606 q 611 777 597 697 q 601 902 625 856 m 956 902 q 878 948 933 948 q 785 902 824 948 q 731 777 745 856 q 741 652 717 697 q 819 606 765 606 q 913 652 873 606 q 966 777 952 697 q 956 902 980 856 m 1064 497 q 986 543 1040 543 q 891 497 931 543 q 837 372 851 451 q 848 246 824 292 q 926 200 872 200 q 1020 246 980 200 q 1073 372 1059 292 q 1064 497 1087 451 m 708 497 q 630 543 685 543 q 536 497 576 543 q 482 372 497 451 q 492 246 468 292 q 570 200 516 200 q 664 246 625 200 q 717 372 704 292 q 708 497 731 451 m 460 91 q 382 137 436 137 q 288 91 328 137 q 234 -34 248 45 q 244 -159 220 -113 q 322 -205 268 -205 q 416 -159 377 -205 q 470 -34 455 -113 q 460 91 484 45 m 815 91 q 737 137 791 137 q 643 91 682 137 q 589 -34 603 45 q 599 -159 575 -113 q 677 -205 623 -205 q 771 -159 731 -205 q 825 -34 811 -113 q 815 91 839 45 m 1001 626 q 1141 556 1096 626 q 1165 370 1186 487 q 1076 187 1145 256 q 912 118 1006 118 l 909 118 q 918 -34 933 55 q 828 -219 897 -150 q 662 -288 758 -288 q 522 -220 567 -288 q 503 -182 510 -202 q 473 -219 491 -202 q 307 -288 404 -288 q 166 -219 211 -288 q 143 -34 122 -151 q 203 118 158 55 q 201 118 202 118 q 60 186 105 118 q 35 370 14 255 q 125 556 55 487 q 290 626 194 626 l 291 626 q 284 777 268 687 q 373 962 304 893 q 538 1031 442 1031 q 680 963 634 1031 q 697 925 691 945 q 729 963 710 945 q 893 1031 797 1031 q 1034 962 989 1031 q 1059 777 1079 893 q 998 626 1043 687 l 1001 626 m 564 421 l 654 421 l 636 315 l 545 315 l 564 421 "},"Ꙭ":{"x_min":49.609375,"x_max":1707.703125,"ha":1758,"o":"m 623 1030 q 945 887 845 1030 q 1318 1030 1096 1030 q 1637 891 1538 1030 q 1694 505 1737 751 q 1502 120 1652 259 q 1133 -19 1353 -19 q 811 124 912 -19 q 438 -19 661 -19 q 119 120 219 -19 q 62 505 19 259 q 254 891 105 751 q 623 1030 404 1030 m 589 841 q 407 753 482 841 q 305 505 333 665 q 321 257 277 345 q 472 169 364 169 q 655 257 580 169 q 757 505 729 345 q 741 753 785 665 q 589 841 697 841 m 1284 841 q 1102 753 1177 841 q 1000 505 1028 665 q 1016 257 972 345 q 1167 169 1060 169 q 1350 257 1275 169 q 1452 505 1424 345 q 1436 753 1480 665 q 1284 841 1393 841 m 445 633 l 664 633 l 618 371 l 399 371 l 445 633 m 1140 633 l 1359 633 l 1313 371 l 1094 371 l 1140 633 "},"©":{"x_min":172.953125,"x_max":1077.015625,"ha":1250,"o":"m 807 763 l 807 617 q 738 654 772 642 q 670 666 705 666 q 562 623 600 666 q 523 502 523 579 q 562 381 523 424 q 670 339 600 339 q 744 351 709 339 q 807 387 779 363 l 807 242 q 727 220 767 227 q 649 212 687 212 q 443 291 521 212 q 366 502 366 370 q 443 713 366 634 q 649 792 521 792 q 731 785 692 792 q 807 763 770 778 m 625 902 q 487 873 551 902 q 370 784 424 843 q 291 655 318 725 q 265 502 265 585 q 291 350 265 420 q 370 221 318 280 q 487 133 423 162 q 625 104 551 104 q 763 133 699 104 q 878 221 826 162 q 958 350 931 280 q 985 502 985 420 q 958 655 985 585 q 878 784 931 725 q 761 873 825 844 q 625 902 698 902 m 625 1007 q 797 969 717 1007 q 944 858 878 932 q 1044 695 1011 784 q 1077 502 1077 607 q 1044 310 1077 399 q 944 148 1011 222 q 797 37 878 74 q 625 0 717 0 q 452 37 532 0 q 305 148 371 74 q 205 310 238 222 q 172 502 172 399 q 205 695 172 607 q 305 858 238 784 q 452 969 371 932 q 625 1007 532 1007 "},"ò":{"x_min":45.4375,"x_max":813.875,"ha":859,"o":"m 468 604 q 328 518 383 604 q 274 301 274 433 q 303 191 274 229 q 389 153 333 153 q 529 239 474 153 q 584 458 584 325 q 555 566 584 529 q 468 604 525 604 m 486 777 q 726 691 638 777 q 813 457 813 605 q 786 289 813 370 q 706 141 758 208 q 559 21 644 61 q 369 -19 474 -19 q 132 66 219 -19 q 45 301 45 152 q 73 468 45 386 q 153 617 101 550 q 299 737 215 696 q 486 777 383 777 m 454 1110 l 581 855 l 461 855 l 281 1110 l 454 1110 "},"Ꙫ":{"x_min":51.90625,"x_max":1244.875,"ha":1296,"o":"m 419 627 l 620 627 l 577 378 l 375 378 l 419 627 m 718 627 l 919 627 l 876 378 l 674 378 l 718 627 m 706 841 q 438 753 543 841 q 305 505 333 665 q 352 257 277 345 q 589 169 426 169 q 858 257 753 169 q 991 505 963 345 q 945 753 1020 665 q 706 841 870 841 m 740 1030 q 1146 891 1015 1030 q 1234 505 1277 751 q 1011 120 1191 259 q 556 -19 830 -19 q 150 120 282 -19 q 62 505 19 259 q 285 891 105 751 q 740 1030 466 1030 "},"^":{"x_min":126.15625,"x_max":921.03125,"ha":1047,"o":"m 598 1012 l 921 634 l 773 634 l 523 838 l 274 634 l 126 634 l 448 1012 l 598 1012 "},"«":{"x_min":75.96875,"x_max":742.65625,"ha":812,"o":"m 742 720 l 712 550 l 501 394 l 658 244 l 632 92 l 375 343 l 397 469 l 742 720 m 443 720 l 413 550 l 202 394 l 360 244 l 333 92 l 75 343 l 99 469 l 443 720 "},"D":{"x_min":26.453125,"x_max":982.75,"ha":1038,"o":"m 405 815 l 295 197 l 380 197 q 640 299 544 197 q 735 576 735 402 q 673 754 735 694 q 487 815 611 815 l 405 815 m 204 1012 l 451 1012 q 716 989 628 1012 q 864 910 805 965 q 952 777 923 855 q 982 600 982 699 q 931 340 982 462 q 788 136 881 219 q 601 31 708 62 q 274 0 495 0 l 26 0 l 204 1012 "},"ꙥ":{"x_min":2.71875,"x_max":1176.71875,"ha":1143,"o":"m 2 0 l 33 173 q 183 277 145 198 q 264 635 210 335 l 286 759 l 1176 759 l 1150 609 l 851 609 l 744 0 l 525 0 l 628 585 l 474 585 l 470 560 q 360 176 419 265 q 2 0 244 0 "},"ÿ":{"x_min":0,"x_max":858.625,"ha":815,"o":"m 82 759 l 288 759 l 382 233 l 625 759 l 858 759 l 425 -71 q 291 -256 353 -212 q 132 -299 229 -299 l 0 -299 l 22 -140 l 91 -140 q 174 -120 145 -140 q 227 -50 204 -100 l 247 -9 l 82 759 m 313 1074 l 458 1074 l 428 908 l 284 908 l 313 1074 m 556 1074 l 699 1074 l 670 908 l 526 908 l 556 1074 "},"í":{"x_min":38.65625,"x_max":588.15625,"ha":428,"o":"m 171 759 l 391 759 l 257 0 l 38 0 l 171 759 m 409 1110 l 588 1110 l 320 855 l 197 855 l 409 1110 "},"w":{"x_min":108.515625,"x_max":1158.40625,"ha":1154,"o":"m 108 759 l 309 759 l 333 237 l 539 759 l 713 759 l 738 238 l 943 759 l 1158 759 l 845 0 l 613 0 l 591 522 l 382 0 l 155 0 l 108 759 "},"$":{"x_min":33.90625,"x_max":787.421875,"ha":869,"o":"m 363 -204 l 265 -204 l 301 0 q 156 17 223 3 q 33 58 90 32 l 63 236 q 188 178 122 198 q 327 154 254 157 l 364 365 q 178 441 236 386 q 120 592 120 495 q 211 810 120 727 q 458 900 302 893 l 485 1055 l 583 1055 l 557 901 q 676 885 619 897 q 787 855 733 874 l 757 683 q 660 724 718 708 q 529 745 602 740 l 495 550 q 687 470 625 525 q 750 324 750 415 q 658 90 750 175 q 399 0 566 6 l 363 -204 m 400 567 l 430 744 q 349 711 379 739 q 318 642 318 684 q 338 591 318 610 q 400 567 358 573 m 460 347 l 426 153 q 519 186 486 157 q 552 266 552 215 q 530 320 552 301 q 460 347 507 339 "},"Ꙩ":{"x_min":45.4375,"x_max":1017.328125,"ha":1062,"o":"m 445 633 l 664 633 l 618 371 l 399 371 l 445 633 m 769 597 q 720 779 769 716 q 579 841 672 841 q 375 719 457 841 q 292 415 292 598 q 340 233 292 298 q 474 169 388 169 q 599 202 545 169 q 693 299 654 235 q 749 438 729 361 q 769 597 769 516 m 613 1030 q 906 918 796 1030 q 1017 625 1017 806 q 983 392 1017 501 q 885 194 949 282 q 697 33 805 86 q 447 -19 588 -19 q 155 92 265 -19 q 45 385 45 204 q 79 619 45 510 q 177 817 112 729 q 364 978 255 925 q 613 1030 472 1030 "},"\\":{"x_min":88.171875,"x_max":344.53125,"ha":456,"o":"m 210 -128 l 88 1012 l 223 1012 l 344 -128 l 210 -128 "},"ꙗ":{"x_min":38.65625,"x_max":1131.953125,"ha":1211,"o":"m 1120 433 l 1044 0 l 826 0 l 844 112 q 730 12 790 44 q 600 -19 670 -19 q 446 36 503 -19 q 389 187 389 92 q 410 305 389 252 l 310 305 l 257 0 l 38 0 l 171 759 l 389 759 l 337 455 l 575 455 q 781 486 660 486 l 910 486 l 912 505 q 915 518 914 514 q 915 526 915 522 q 877 593 915 571 q 764 616 839 616 q 633 600 696 616 q 510 554 569 585 l 543 739 q 683 768 611 758 q 832 777 754 777 q 1058 719 984 777 q 1131 543 1131 661 q 1128 492 1131 520 q 1120 433 1125 465 m 779 341 q 655 313 697 341 q 613 230 613 285 q 638 165 613 189 q 706 141 663 141 q 818 186 773 141 q 879 314 864 231 l 884 341 l 779 341 "},"Ì":{"x_min":26.453125,"x_max":438.8125,"ha":465,"o":"m 204 1012 l 438 1012 l 261 0 l 26 0 l 204 1012 m 330 1287 l 418 1108 l 309 1108 l 169 1287 l 330 1287 "},"µ":{"x_min":-34.234375,"x_max":837.28125,"ha":920,"o":"m -34 -290 l 149 759 l 369 759 l 291 318 q 288 290 289 303 q 287 265 287 276 q 313 189 287 215 q 389 162 339 162 q 488 200 452 162 q 539 318 525 238 l 617 759 l 837 759 l 748 251 q 745 225 746 237 q 743 204 743 213 q 751 174 743 184 q 777 165 759 165 q 799 169 787 165 q 823 180 811 172 l 793 10 q 728 -12 758 -4 q 671 -19 698 -19 q 587 6 617 -19 q 544 87 557 31 q 460 7 506 33 q 361 -19 414 -19 q 287 -3 315 -19 q 245 44 258 12 l 186 -290 l -34 -290 "},"Ç":{"x_min":45.4375,"x_max":905.421875,"ha":917,"o":"m 757 47 q 595 -2 673 14 q 448 -19 518 -19 q 155 92 265 -19 q 45 388 45 204 q 80 617 45 510 q 182 813 114 725 q 375 974 262 918 q 617 1030 487 1030 q 759 1012 688 1030 q 905 955 831 993 l 867 746 q 749 818 808 795 q 622 841 690 841 q 386 720 481 841 q 290 419 290 600 q 349 236 290 302 q 511 169 408 169 q 642 194 573 169 q 797 271 711 219 l 757 47 m 528 0 q 561 -65 550 -35 q 571 -123 571 -94 q 525 -232 571 -193 q 395 -271 479 -271 q 336 -267 366 -271 q 275 -254 306 -263 l 293 -148 q 342 -166 317 -160 q 390 -172 367 -172 q 453 -152 430 -172 q 477 -101 477 -133 q 468 -60 477 -84 q 441 0 460 -37 l 528 0 "},"-":{"x_min":31.203125,"x_max":449.65625,"ha":519,"o":"m 66 498 l 449 498 l 415 301 l 31 301 l 66 498 "},"ꙑ":{"x_min":64.4375,"x_max":1250.328125,"ha":1284,"o":"m 1030 759 l 1250 759 l 1116 0 l 897 0 l 1030 759 m 437 151 l 548 151 q 659 237 644 151 q 661 258 661 248 q 577 321 661 321 l 466 321 l 437 151 m 90 759 l 543 759 l 493 471 l 617 471 q 869 293 869 471 q 864 234 869 266 q 534 0 822 0 l 192 0 l 299 609 l 64 609 l 90 759 "},"Q":{"x_min":45.4375,"x_max":1017.328125,"ha":1062,"o":"m 463 -18 q 450 -19 457 -18 q 428 -19 443 -19 q 298 1 359 -19 q 187 63 237 22 q 82 203 120 118 q 45 385 45 288 q 79 620 45 510 q 177 817 112 730 q 364 978 256 925 q 613 1030 472 1030 q 906 918 796 1030 q 1017 625 1017 806 q 924 251 1017 412 q 665 18 831 91 l 805 -202 l 581 -202 l 463 -18 m 769 597 q 720 779 769 716 q 579 841 672 841 q 375 719 457 841 q 292 415 292 598 q 340 233 292 298 q 474 169 388 169 q 599 202 545 169 q 693 299 654 235 q 749 438 729 361 q 769 597 769 516 "},"M":{"x_min":26.453125,"x_max":1218.09375,"ha":1244,"o":"m 204 1012 l 492 1012 l 609 474 l 917 1012 l 1218 1012 l 1040 0 l 817 0 l 947 747 l 631 194 l 504 194 l 379 747 l 248 0 l 26 0 l 204 1012 "},"C":{"x_min":45.4375,"x_max":905.421875,"ha":917,"o":"m 757 47 q 595 -2 673 14 q 448 -19 518 -19 q 155 92 265 -19 q 45 388 45 204 q 80 617 45 510 q 182 813 114 725 q 375 974 262 918 q 617 1030 487 1030 q 759 1012 688 1030 q 905 955 831 993 l 867 746 q 749 818 808 795 q 622 841 690 841 q 386 720 481 841 q 290 419 290 600 q 349 236 290 302 q 511 169 408 169 q 642 194 573 169 q 797 271 711 219 l 757 47 "},"ꚋ":{"x_min":42.046875,"x_max":849.640625,"ha":935,"o":"m 68 759 l 782 759 l 756 609 l 508 609 l 480 450 l 638 450 q 815 369 763 450 q 840 135 867 289 l 819 13 q 712 -219 792 -139 q 507 -299 632 -299 l 398 -299 l 425 -140 l 463 -140 q 554 -109 526 -140 q 599 13 583 -78 l 620 137 q 619 260 636 229 q 539 290 601 290 l 452 290 l 401 0 l 183 0 l 290 609 l 42 609 l 68 759 "},"!":{"x_min":86.140625,"x_max":484.25,"ha":570,"o":"m 263 1012 l 484 1012 l 415 623 l 335 340 l 177 340 l 194 623 l 263 1012 m 128 241 l 348 241 l 306 0 l 86 0 l 128 241 "},"ç":{"x_min":46.125,"x_max":726.375,"ha":741,"o":"m 726 735 l 691 537 q 604 587 647 570 q 521 604 562 604 q 346 524 414 604 q 278 320 278 444 q 321 197 278 241 q 440 153 363 153 q 540 170 491 153 q 634 221 590 187 l 600 22 q 491 -9 546 1 q 381 -19 436 -19 q 133 60 220 -19 q 46 288 46 141 q 78 469 46 381 q 170 626 110 556 q 322 740 236 703 q 521 777 408 777 q 624 767 573 777 q 726 735 675 756 m 421 0 q 454 -65 443 -35 q 464 -123 464 -94 q 418 -232 464 -193 q 288 -271 372 -271 q 229 -267 259 -271 q 168 -254 199 -263 l 186 -148 q 235 -166 210 -160 q 283 -172 260 -172 q 346 -152 323 -172 q 370 -101 370 -133 q 361 -60 370 -84 q 334 0 353 -37 l 421 0 "},"È":{"x_min":26.453125,"x_max":837.609375,"ha":854,"o":"m 204 1012 l 837 1012 l 803 815 l 404 815 l 370 626 l 746 626 l 710 429 l 336 429 l 295 197 l 707 197 l 674 0 l 26 0 l 204 1012 m 548 1287 l 636 1108 l 527 1108 l 387 1287 l 548 1287 "},"{":{"x_min":132.25,"x_max":836.25,"ha":890,"o":"m 638 -73 l 613 -226 l 479 -226 q 315 -184 370 -226 q 259 -59 259 -143 q 262 -24 259 -44 q 268 23 264 -4 l 290 153 q 296 192 295 174 q 298 226 298 211 q 270 310 298 286 q 171 335 242 335 l 132 335 l 160 486 l 198 486 q 323 525 283 486 q 381 666 363 564 l 405 805 q 499 995 427 936 q 704 1055 570 1055 l 836 1055 l 809 902 l 767 902 q 651 873 682 902 q 602 747 619 843 l 582 634 q 528 480 564 529 q 422 415 491 432 q 493 370 471 400 q 516 287 516 339 q 513 244 516 267 q 505 194 511 221 l 486 82 q 479 34 480 50 q 477 6 477 18 q 502 -56 477 -38 q 597 -73 526 -73 l 638 -73 "},"X":{"x_min":-64.078125,"x_max":1014.96875,"ha":964,"o":"m 619 512 l 843 0 l 604 0 l 456 339 l 189 0 l -64 0 l 345 519 l 129 1012 l 369 1012 l 509 694 l 759 1012 l 1014 1012 l 619 512 "},"ô":{"x_min":45.4375,"x_max":813.875,"ha":859,"o":"m 468 604 q 328 518 383 604 q 274 301 274 433 q 303 191 274 229 q 389 153 333 153 q 529 239 474 153 q 584 458 584 325 q 555 566 584 529 q 468 604 525 604 m 486 777 q 726 691 638 777 q 813 457 813 605 q 786 289 813 370 q 706 141 758 208 q 559 21 644 61 q 369 -19 474 -19 q 132 66 219 -19 q 45 301 45 152 q 73 468 45 386 q 153 617 101 550 q 299 737 215 696 q 486 777 383 777 m 450 1110 l 610 1110 l 721 855 l 613 855 l 518 1008 l 370 855 l 250 855 l 450 1110 "},"¼":{"x_min":69.421875,"x_max":1183.921875,"ha":1294,"o":"m 88 559 l 213 559 l 276 912 l 133 877 l 152 986 l 300 1019 l 434 1019 l 353 559 l 479 559 l 460 453 l 69 453 l 88 559 m 361 -19 l 212 -19 l 965 1030 l 1115 1030 l 361 -19 m 998 434 l 814 215 l 960 215 l 998 434 m 1010 566 l 1161 566 l 1100 215 l 1183 215 l 1165 109 l 1082 109 l 1062 0 l 922 0 l 941 109 l 703 109 l 722 223 l 1010 566 "},"#":{"x_min":81.390625,"x_max":974.609375,"ha":869,"o":"m 625 591 l 463 591 l 421 405 l 582 405 l 625 591 m 556 996 l 497 735 l 658 735 l 717 996 l 852 996 l 793 735 l 974 735 l 942 591 l 760 591 l 718 405 l 900 405 l 867 259 l 687 259 l 628 0 l 493 0 l 552 259 l 391 259 l 332 0 l 196 0 l 255 259 l 81 259 l 113 405 l 284 405 l 327 591 l 155 591 l 187 735 l 361 735 l 419 996 l 556 996 "},"Ê":{"x_min":26.453125,"x_max":837.609375,"ha":854,"o":"m 204 1012 l 837 1012 l 803 815 l 404 815 l 370 626 l 746 626 l 710 429 l 336 429 l 295 197 l 707 197 l 674 0 l 26 0 l 204 1012 m 462 1287 l 674 1287 l 767 1108 l 664 1108 l 563 1218 l 422 1108 l 313 1108 l 462 1287 "},")":{"x_min":-34.234375,"x_max":454.078125,"ha":571,"o":"m 182 1053 l 361 1053 q 431 834 407 942 q 454 617 454 726 q 377 216 454 415 q 144 -183 300 16 l -34 -183 q 178 233 108 27 q 248 647 248 439 q 232 849 248 748 q 182 1053 216 950 "},"Ꙕ":{"x_min":56.296875,"x_max":1441.21875,"ha":1467,"o":"m 1018 604 q 1134 604 1018 604 l 1205 1012 l 1441 1012 l 1264 0 l 1028 0 l 1100 406 l 984 406 q 800 108 937 236 q 445 -19 664 -19 q 126 120 225 -19 q 56 367 56 217 q 69 505 56 431 q 261 891 111 751 q 630 1030 410 1030 q 940 902 849 1030 q 1020 645 1020 790 q 1018 604 1020 625 m 596 841 q 413 753 488 841 q 311 505 339 665 q 300 392 300 442 q 326 257 300 311 q 478 169 370 169 q 660 257 586 169 q 763 505 735 345 q 774 619 774 567 q 747 753 774 699 q 596 841 704 841 "},"Å":{"x_min":-81.71875,"x_max":863.734375,"ha":967,"o":"m 485 1096 q 508 1033 485 1059 q 564 1007 532 1007 q 621 1033 597 1007 q 644 1096 644 1059 q 620 1158 644 1132 q 564 1184 597 1184 q 508 1158 532 1184 q 485 1096 485 1132 m 705 987 l 863 0 l 639 0 l 613 184 l 249 184 l 159 0 l -81 0 l 422 988 q 398 1040 405 1013 q 391 1096 391 1066 q 441 1232 391 1175 q 564 1289 492 1289 q 687 1232 636 1289 q 738 1096 738 1175 q 730 1037 738 1063 q 705 987 722 1011 m 338 368 l 582 368 l 528 758 l 338 368 "},"ø":{"x_min":-22.03125,"x_max":875.25,"ha":859,"o":"m 551 571 q 517 595 538 587 q 468 604 496 604 q 331 523 382 604 q 273 297 279 442 l 551 571 m 92 118 q 56 204 68 158 q 45 302 45 250 q 72 468 45 387 q 153 617 100 550 q 299 737 214 697 q 488 777 383 777 q 604 762 551 777 q 698 715 656 746 l 815 829 l 875 754 l 763 644 q 800 557 788 604 q 813 457 813 510 q 786 289 813 370 q 705 141 758 208 q 558 21 643 63 q 369 -19 473 -19 q 249 -3 302 -19 q 154 47 196 13 l 36 -69 l -22 6 l 92 118 m 303 191 q 340 163 319 172 q 389 153 361 153 q 528 238 475 153 q 584 469 580 322 l 303 191 "},"â":{"x_min":21.703125,"x_max":763.671875,"ha":843,"o":"m 411 341 q 287 313 329 341 q 246 230 246 285 q 270 165 246 189 q 339 141 295 141 q 451 186 405 141 q 511 314 496 231 l 516 341 l 411 341 m 752 433 l 676 0 l 457 0 l 476 112 q 362 12 422 44 q 232 -19 302 -19 q 78 36 135 -19 q 21 187 21 92 q 122 409 21 332 q 413 486 223 486 l 542 486 l 545 505 q 546 518 546 514 q 547 526 547 522 q 509 593 547 571 q 396 616 471 616 q 264 600 328 616 q 142 554 201 585 l 174 739 q 315 768 243 758 q 463 777 387 777 q 689 719 615 777 q 763 543 763 661 q 760 492 763 520 q 752 433 758 465 m 442 1110 l 602 1110 l 713 855 l 605 855 l 510 1008 l 362 855 l 242 855 l 442 1110 "},"}":{"x_min":54.9375,"x_max":757.578125,"ha":890,"o":"m 81 -73 l 124 -73 q 240 -43 209 -73 q 288 82 271 -13 l 308 194 q 363 348 326 299 q 470 415 400 397 q 398 458 421 427 q 375 541 375 489 q 377 581 375 558 q 385 634 380 604 l 405 747 q 412 792 410 775 q 413 822 413 809 q 388 885 413 868 q 293 902 364 902 l 252 902 l 278 1055 l 412 1055 q 576 1013 522 1055 q 631 889 631 972 q 629 849 631 870 q 622 805 626 828 l 598 666 q 593 628 595 646 q 591 594 591 609 q 619 510 591 535 q 718 486 648 486 l 757 486 l 729 335 l 693 335 q 567 295 607 335 q 509 153 526 255 l 486 23 q 392 -166 463 -107 q 187 -226 320 -226 l 54 -226 l 81 -73 "},"Ä":{"x_min":-81.71875,"x_max":863.734375,"ha":967,"o":"m 613 184 l 249 184 l 159 0 l -81 0 l 433 1012 l 702 1012 l 863 0 l 639 0 l 613 184 m 338 368 l 582 368 l 528 758 l 338 368 m 408 1287 l 552 1287 l 524 1121 l 380 1121 l 408 1287 m 649 1287 l 795 1287 l 765 1121 l 621 1121 l 649 1287 "},"Ꙥ":{"x_min":-31.53125,"x_max":1424.625,"ha":1370,"o":"m -31 0 l 2 197 q 211 328 161 216 q 329 821 262 440 l 363 1012 l 1424 1012 l 1390 815 l 977 815 l 834 0 l 599 0 l 742 815 l 563 815 l 552 753 q 398 210 485 379 q -31 0 308 37 "},"¸":{"x_min":27.125,"x_max":323.515625,"ha":625,"o":"m 280 0 q 313 -65 302 -35 q 323 -123 323 -94 q 277 -232 323 -193 q 147 -271 231 -271 q 88 -267 118 -271 q 27 -254 58 -263 l 45 -148 q 94 -166 69 -160 q 142 -172 119 -172 q 205 -152 182 -172 q 229 -101 229 -133 q 220 -60 229 -84 q 193 0 212 -37 l 280 0 "},"a":{"x_min":21.703125,"x_max":763.671875,"ha":843,"o":"m 411 341 q 287 313 329 341 q 246 230 246 285 q 270 165 246 189 q 339 141 295 141 q 451 186 405 141 q 511 314 496 231 l 516 341 l 411 341 m 752 433 l 676 0 l 457 0 l 476 112 q 362 12 422 44 q 232 -19 302 -19 q 78 36 135 -19 q 21 187 21 92 q 122 409 21 332 q 413 486 223 486 l 542 486 l 545 505 q 546 518 546 514 q 547 526 547 522 q 509 593 547 571 q 396 616 471 616 q 264 600 328 616 q 142 554 201 585 l 174 739 q 315 768 243 758 q 463 777 387 777 q 689 719 615 777 q 763 543 763 661 q 760 492 763 520 q 752 433 758 465 "},"=":{"x_min":132.25,"x_max":914.921875,"ha":1047,"o":"m 132 669 l 914 669 l 914 510 l 132 510 l 132 669 m 132 360 l 914 360 l 914 200 l 132 200 l 132 360 "},"N":{"x_min":26.453125,"x_max":1020.046875,"ha":1046,"o":"m 204 1012 l 466 1012 l 674 311 l 797 1012 l 1020 1012 l 842 0 l 579 0 l 370 701 l 248 0 l 26 0 l 204 1012 "},"ꙕ":{"x_min":46.125,"x_max":1176.71875,"ha":1215,"o":"m 1176 759 l 1043 0 l 825 0 l 878 305 l 789 305 q 646 77 754 174 q 360 -19 537 -19 q 103 86 184 -19 q 46 277 46 161 q 55 379 46 324 q 205 672 88 566 q 499 777 323 777 q 752 681 676 777 q 817 486 817 596 q 815 455 817 470 l 905 455 l 958 759 l 1176 759 m 470 604 q 350 546 398 604 q 283 379 302 488 q 275 298 275 334 q 291 211 275 246 q 390 153 319 153 q 511 211 463 153 q 579 379 560 269 q 586 459 586 423 q 570 546 586 512 q 470 604 542 604 "},"ú":{"x_min":75.28125,"x_max":851.84375,"ha":890,"o":"m 84 295 l 164 759 l 383 759 l 314 364 q 304 298 307 325 q 300 255 300 271 q 321 189 300 212 q 382 165 343 165 q 499 223 450 165 q 566 385 548 282 l 632 759 l 851 759 l 718 0 l 498 0 l 518 111 q 400 12 462 45 q 271 -19 339 -19 q 126 35 177 -19 q 75 190 75 90 q 77 240 75 214 q 84 295 80 267 m 627 1110 l 806 1110 l 538 855 l 415 855 l 627 1110 "},"2":{"x_min":9.5,"x_max":800.296875,"ha":869,"o":"m 308 191 l 705 191 l 671 0 l 9 0 l 44 193 l 431 518 q 528 628 495 572 q 561 735 561 683 q 527 822 561 791 q 431 852 493 852 q 302 827 373 852 q 141 748 230 801 l 180 963 q 343 1014 263 997 q 501 1030 423 1030 q 720 964 640 1030 q 800 781 800 897 q 751 601 800 682 q 536 381 702 520 l 308 191 "},"ü":{"x_min":75.28125,"x_max":851.84375,"ha":890,"o":"m 84 295 l 164 759 l 383 759 l 314 364 q 304 298 307 325 q 300 255 300 271 q 321 189 300 212 q 382 165 343 165 q 499 223 450 165 q 566 385 548 282 l 632 759 l 851 759 l 718 0 l 498 0 l 518 111 q 400 12 462 45 q 271 -19 339 -19 q 126 35 177 -19 q 75 190 75 90 q 77 240 75 214 q 84 295 80 267 m 350 1074 l 495 1074 l 465 908 l 321 908 l 350 1074 m 593 1074 l 736 1074 l 707 908 l 563 908 l 593 1074 "},"¯":{"x_min":193.296875,"x_max":600.90625,"ha":625,"o":"m 216 1055 l 600 1055 l 578 927 l 193 927 l 216 1055 "},"Z":{"x_min":-32.890625,"x_max":924.765625,"ha":906,"o":"m 158 1012 l 924 1012 l 895 851 l 304 197 l 795 197 l 760 0 l -32 0 l -5 161 l 587 815 l 123 815 l 158 1012 "},"u":{"x_min":75.28125,"x_max":851.84375,"ha":890,"o":"m 84 295 l 164 759 l 383 759 l 314 364 q 304 298 307 325 q 300 255 300 271 q 321 189 300 212 q 382 165 343 165 q 499 223 450 165 q 566 385 548 282 l 632 759 l 851 759 l 718 0 l 498 0 l 518 111 q 400 12 462 45 q 271 -19 339 -19 q 126 35 177 -19 q 75 190 75 90 q 77 240 75 214 q 84 295 80 267 "},"Ó":{"x_min":45.4375,"x_max":1017.328125,"ha":1062,"o":"m 769 597 q 720 779 769 716 q 579 841 672 841 q 375 719 457 841 q 292 415 292 598 q 340 233 292 298 q 474 169 388 169 q 599 202 545 169 q 693 299 654 235 q 749 438 729 361 q 769 597 769 516 m 613 1030 q 906 918 796 1030 q 1017 625 1017 806 q 983 392 1017 501 q 885 194 949 282 q 697 33 805 86 q 447 -19 588 -19 q 155 92 265 -19 q 45 385 45 204 q 79 619 45 510 q 177 817 112 729 q 364 978 255 925 q 613 1030 472 1030 m 704 1287 l 875 1287 l 680 1108 l 554 1108 l 704 1287 "},"k":{"x_min":38.65625,"x_max":894.578125,"ha":831,"o":"m 222 1055 l 442 1055 l 342 483 l 637 759 l 894 759 l 497 408 l 786 0 l 536 0 l 314 327 l 257 0 l 38 0 l 222 1055 "},"Ù":{"x_min":84.78125,"x_max":988.84375,"ha":1015,"o":"m 204 1012 l 438 1012 l 332 406 q 323 348 326 373 q 320 304 320 323 q 353 205 320 238 q 448 172 385 172 q 579 225 534 172 q 647 405 625 278 l 754 1012 l 988 1012 l 882 405 q 732 81 843 181 q 415 -19 621 -19 q 169 57 253 -19 q 84 280 84 134 q 87 335 84 305 q 97 405 90 365 l 204 1012 m 598 1287 l 686 1108 l 577 1108 l 437 1287 l 598 1287 "},"¢":{"x_min":83.421875,"x_max":762.328125,"ha":869,"o":"m 452 580 q 352 478 389 549 q 314 320 314 407 q 332 233 314 270 q 381 179 349 196 l 452 580 m 762 735 l 727 537 q 640 588 681 571 q 560 604 599 604 l 554 604 l 476 153 q 579 171 531 155 q 671 221 628 188 l 637 22 q 545 -4 593 5 q 446 -18 497 -14 l 412 -212 l 314 -212 l 347 -15 q 153 78 224 0 q 83 280 83 157 q 194 614 83 478 q 486 773 305 750 l 520 971 l 619 971 l 585 776 q 671 765 626 775 q 762 735 716 754 "},"ß":{"x_min":38.65625,"x_max":832.859375,"ha":899,"o":"m 170 755 q 290 981 196 907 q 551 1055 384 1055 q 760 995 689 1055 q 832 820 832 935 q 831 790 832 807 q 826 756 829 774 l 817 706 q 670 671 725 703 q 616 591 616 640 q 678 505 616 554 q 687 498 684 501 l 725 469 q 800 382 776 429 q 824 273 824 335 q 739 61 824 142 q 515 -19 654 -19 q 421 -11 467 -19 q 330 13 375 -2 l 360 179 q 427 151 394 160 q 493 141 461 141 q 574 167 543 141 q 604 234 604 193 q 590 283 604 261 q 529 343 576 305 l 492 372 q 433 438 451 404 q 415 515 415 472 q 471 676 415 609 q 632 776 526 743 q 633 786 632 780 q 633 801 633 791 q 608 870 633 847 q 535 894 583 894 q 437 858 473 894 q 388 746 401 822 l 257 0 l 38 0 l 170 755 "},"é":{"x_min":45.4375,"x_max":812.15625,"ha":848,"o":"m 786 351 l 778 312 l 267 312 q 266 300 267 308 q 265 288 265 293 q 305 178 265 215 q 425 141 345 141 q 571 164 495 141 q 732 233 648 187 l 698 44 q 540 -3 619 12 q 379 -19 461 -19 q 132 62 219 -19 q 45 294 45 144 q 72 462 45 381 q 153 612 100 544 q 304 735 217 693 q 498 777 392 777 q 718 695 637 777 q 800 474 800 613 q 796 417 800 447 q 786 351 793 387 m 579 462 q 582 480 581 471 q 583 498 583 489 q 554 584 583 552 q 474 616 524 616 q 365 577 411 616 q 297 462 320 538 l 579 462 m 633 1110 l 812 1110 l 544 855 l 421 855 l 633 1110 "},"s":{"x_min":12.203125,"x_max":699.921875,"ha":744,"o":"m 699 735 l 668 547 q 540 598 603 581 q 419 616 476 616 q 320 597 355 616 q 284 544 284 579 q 304 512 284 524 q 381 486 324 499 l 421 478 q 606 397 553 446 q 659 261 659 348 q 566 54 659 128 q 305 -19 473 -19 q 161 -7 234 -19 q 12 29 88 4 l 45 219 q 171 161 104 181 q 309 141 239 141 q 414 160 379 141 q 448 213 448 178 q 429 251 448 238 q 348 279 409 265 l 308 287 q 141 367 191 314 q 91 514 91 420 q 178 709 91 640 q 424 777 264 777 q 563 767 495 777 q 699 735 631 756 "},"B":{"x_min":26.453125,"x_max":874.234375,"ha":952,"o":"m 499 620 q 598 655 562 620 q 633 752 633 691 q 608 813 633 792 q 537 834 583 834 l 406 834 l 368 620 l 499 620 m 430 177 q 554 220 510 177 q 597 343 597 263 q 567 418 597 394 q 476 442 537 442 l 337 442 l 290 177 l 430 177 m 708 541 q 800 472 768 522 q 833 347 833 421 q 724 91 833 183 q 416 0 614 0 l 26 0 l 204 1012 l 556 1012 q 796 959 718 1012 q 874 796 874 906 q 828 633 874 703 q 708 541 782 562 "},"?":{"x_min":130.21875,"x_max":693.140625,"ha":725,"o":"m 172 241 l 392 241 l 349 0 l 130 0 l 172 241 m 410 341 l 189 341 l 194 375 q 231 471 204 429 q 337 583 257 514 l 382 622 q 452 699 430 663 q 474 772 474 735 q 450 831 474 811 q 379 852 425 852 q 268 829 330 852 q 137 762 207 807 l 174 975 q 317 1017 252 1003 q 440 1030 381 1030 q 626 972 558 1030 q 693 813 693 914 q 660 669 693 733 q 550 536 628 605 l 503 495 q 437 427 454 453 q 415 372 419 401 l 410 341 "},"H":{"x_min":26.453125,"x_max":1020.046875,"ha":1046,"o":"m 204 1012 l 438 1012 l 370 626 l 717 626 l 784 1012 l 1020 1012 l 842 0 l 607 0 l 682 429 l 336 429 l 261 0 l 26 0 l 204 1012 "},"î":{"x_min":38.65625,"x_max":517.625,"ha":428,"o":"m 171 759 l 391 759 l 257 0 l 38 0 l 171 759 m 246 1110 l 406 1110 l 517 855 l 409 855 l 314 1008 l 166 855 l 46 855 l 246 1110 "},"c":{"x_min":46.125,"x_max":726.375,"ha":741,"o":"m 726 735 l 691 537 q 604 587 647 570 q 521 604 562 604 q 346 524 414 604 q 278 320 278 444 q 321 197 278 241 q 440 153 363 153 q 540 170 491 153 q 634 221 590 187 l 600 22 q 491 -9 546 1 q 381 -19 436 -19 q 133 60 220 -19 q 46 288 46 141 q 78 469 46 381 q 170 626 110 556 q 322 740 236 703 q 521 777 408 777 q 624 767 573 777 q 726 735 675 756 "},"¶":{"x_min":92.921875,"x_max":754.1875,"ha":795,"o":"m 436 1012 l 754 1012 l 553 -133 l 437 -133 l 619 912 l 504 912 l 320 -133 l 206 -133 l 306 440 q 148 516 204 453 q 92 678 92 578 q 188 918 92 824 q 436 1012 283 1012 "},"¥":{"x_min":7.453125,"x_max":943.40625,"ha":869,"o":"m 790 282 l 512 282 l 462 0 l 229 0 l 280 282 l 7 282 l 31 413 l 302 413 l 311 465 l 293 516 l 48 516 l 71 647 l 248 647 l 118 1012 l 342 1012 l 461 673 l 696 1012 l 943 1012 l 674 647 l 853 647 l 831 516 l 582 516 l 546 465 l 535 413 l 812 413 l 790 282 "},"(":{"x_min":96.3125,"x_max":584.625,"ha":571,"o":"m 368 -183 l 191 -183 q 120 37 143 -70 q 96 252 96 145 q 173 652 96 453 q 407 1053 251 852 l 584 1053 q 372 637 442 843 q 302 225 302 432 q 319 22 302 123 q 368 -183 335 -79 "},"U":{"x_min":84.78125,"x_max":988.84375,"ha":1015,"o":"m 204 1012 l 438 1012 l 332 406 q 323 348 326 373 q 320 304 320 323 q 353 205 320 238 q 448 172 385 172 q 579 225 534 172 q 647 405 625 278 l 754 1012 l 988 1012 l 882 405 q 732 81 843 181 q 415 -19 621 -19 q 169 57 253 -19 q 84 280 84 134 q 87 335 84 305 q 97 405 90 365 l 204 1012 "},"Ñ":{"x_min":26.453125,"x_max":1020.046875,"ha":1046,"o":"m 204 1012 l 466 1012 l 674 311 l 797 1012 l 1020 1012 l 842 0 l 579 0 l 370 701 l 248 0 l 26 0 l 204 1012 m 605 1143 l 574 1168 q 550 1185 560 1181 q 529 1190 540 1190 q 491 1168 507 1190 q 468 1108 475 1146 l 385 1108 q 440 1242 400 1195 q 538 1289 481 1289 q 581 1281 561 1289 q 622 1254 601 1273 l 654 1226 q 675 1213 664 1218 q 696 1208 686 1208 q 736 1229 720 1208 q 758 1289 752 1249 l 843 1289 q 786 1155 826 1202 q 690 1108 746 1108 q 647 1116 666 1108 q 605 1143 628 1123 "},"F":{"x_min":26.453125,"x_max":837.609375,"ha":854,"o":"m 204 1012 l 837 1012 l 803 815 l 404 815 l 370 626 l 746 626 l 710 429 l 336 429 l 261 0 l 26 0 l 204 1012 "},"­":{"x_min":31.203125,"x_max":449.65625,"ha":519,"o":"m 66 498 l 449 498 l 415 301 l 31 301 l 66 498 "},":":{"x_min":51.546875,"x_max":404.21875,"ha":500,"o":"m 183 759 l 404 759 l 358 497 l 138 497 l 183 759 m 97 262 l 317 262 l 271 0 l 51 0 l 97 262 "},"Ꙍ":{"x_min":46.796875,"x_max":1684.703125,"ha":1757,"o":"m 1277 -19 q 1141 23 1218 -19 q 1001 103 1141 23 q 826 147 913 147 q 634 103 738 147 q 467 23 634 103 q 316 -19 375 -19 q 83 94 147 -19 q 46 257 46 160 q 56 365 46 307 q 160 663 82 510 q 328 908 236 813 l 523 908 q 387 681 466 851 q 281 364 305 501 q 273 286 273 320 q 351 178 273 178 q 501 210 425 178 q 640 271 571 240 q 853 303 735 303 q 1054 271 972 303 q 1174 210 1114 240 q 1312 178 1238 178 q 1447 367 1414 178 q 1460 535 1460 444 q 1452 680 1460 604 q 1395 908 1434 848 l 1589 908 q 1672 663 1649 813 q 1684 515 1684 588 q 1671 364 1684 438 q 1551 94 1641 194 q 1277 -19 1446 -19 "},"Û":{"x_min":84.78125,"x_max":988.84375,"ha":1015,"o":"m 204 1012 l 438 1012 l 332 406 q 323 348 326 373 q 320 304 320 323 q 353 205 320 238 q 448 172 385 172 q 579 225 534 172 q 647 405 625 278 l 754 1012 l 988 1012 l 882 405 q 732 81 843 181 q 415 -19 621 -19 q 169 57 253 -19 q 84 280 84 134 q 87 335 84 305 q 97 405 90 365 l 204 1012 m 512 1287 l 724 1287 l 817 1108 l 714 1108 l 613 1218 l 472 1108 l 363 1108 l 512 1287 "},"*":{"x_min":25.09375,"x_max":628.71875,"ha":653,"o":"m 628 825 l 427 708 l 628 590 l 582 494 l 379 619 l 379 385 l 275 385 l 275 619 l 71 494 l 25 590 l 229 708 l 25 825 l 71 921 l 275 797 l 275 1030 l 379 1030 l 379 797 l 582 921 l 628 825 "},"°":{"x_min":108.515625,"x_max":515.453125,"ha":625,"o":"m 312 930 q 238 896 268 930 q 207 813 207 862 q 237 731 207 765 q 312 698 267 698 q 387 732 356 698 q 417 813 417 765 q 386 896 417 862 q 312 930 356 930 m 312 1040 q 389 1023 352 1040 q 456 973 427 1005 q 500 900 485 941 q 515 813 515 859 q 500 727 515 768 q 457 655 485 686 q 390 605 428 623 q 311 588 352 588 q 166 653 225 588 q 108 813 108 718 q 167 974 108 909 q 312 1040 226 1040 "},"V":{"x_min":94.953125,"x_max":1049.890625,"ha":967,"o":"m 94 1012 l 318 1012 l 430 255 l 807 1012 l 1049 1012 l 535 0 l 255 0 l 94 1012 "},"å":{"x_min":21.703125,"x_max":763.671875,"ha":843,"o":"m 411 341 q 287 313 329 341 q 246 230 246 285 q 270 165 246 189 q 339 141 295 141 q 451 186 405 141 q 511 314 496 231 l 516 341 l 411 341 m 752 433 l 676 0 l 457 0 l 476 112 q 362 12 422 44 q 232 -19 302 -19 q 78 36 135 -19 q 21 187 21 92 q 122 409 21 332 q 413 486 223 486 l 542 486 l 545 505 q 546 518 546 514 q 547 526 547 522 q 509 593 547 571 q 396 616 471 616 q 264 600 328 616 q 142 554 201 585 l 174 739 q 315 768 243 758 q 463 777 387 777 q 689 719 615 777 q 763 543 763 661 q 760 492 763 520 q 752 433 758 465 m 687 1033 q 636 896 687 952 q 514 840 586 840 q 390 896 440 840 q 339 1033 339 952 q 390 1170 339 1115 q 514 1226 440 1226 q 636 1170 586 1226 q 687 1033 687 1115 m 605 1033 q 579 1106 605 1077 q 514 1134 553 1134 q 448 1106 473 1134 q 422 1033 422 1077 q 448 960 422 989 q 514 931 474 931 q 579 960 553 931 q 605 1033 605 988 "}," ":{"x_min":0,"x_max":0,"ha":435},"0":{"x_min":45.4375,"x_max":825.390625,"ha":869,"o":"m 373 158 q 456 189 420 158 q 517 280 493 220 q 548 378 534 323 q 575 507 562 432 q 590 618 585 567 q 596 705 596 669 q 571 816 596 781 q 496 852 547 852 q 412 822 448 852 q 352 730 376 792 q 319 630 334 686 q 293 507 304 573 q 277 394 283 446 q 271 305 271 341 q 297 194 271 230 q 373 158 322 158 m 825 666 q 791 404 825 531 q 697 180 758 276 q 548 30 636 81 q 354 -19 461 -19 q 125 74 204 -19 q 45 345 45 168 q 78 606 45 478 q 171 829 111 734 q 321 980 234 929 q 516 1030 407 1030 q 745 936 664 1030 q 825 666 825 841 "},"¾":{"x_min":59.1875,"x_max":1183.921875,"ha":1294,"o":"m 415 759 q 485 719 461 750 q 508 636 508 687 q 437 493 508 543 q 234 442 365 442 q 141 451 185 442 q 59 474 97 459 l 79 591 q 151 554 114 567 q 224 541 187 541 q 328 567 290 541 q 365 638 365 593 q 335 692 365 675 q 241 710 304 710 l 194 710 l 211 803 l 264 803 q 363 822 329 803 q 397 878 397 842 q 374 917 397 904 q 306 930 351 930 q 234 921 273 930 q 148 894 195 912 l 167 1007 q 256 1024 211 1018 q 346 1030 302 1030 q 491 996 441 1030 q 542 900 542 963 q 508 807 542 845 q 415 759 473 769 m 361 -19 l 212 -19 l 965 1030 l 1115 1030 l 361 -19 m 998 434 l 814 215 l 960 215 l 998 434 m 1010 566 l 1161 566 l 1100 215 l 1183 215 l 1165 109 l 1082 109 l 1062 0 l 922 0 l 941 109 l 703 109 l 722 223 l 1010 566 "},"@":{"x_min":56.296875,"x_max":1158.40625,"ha":1250,"o":"m 631 543 q 519 472 566 543 q 473 302 473 400 q 498 215 473 245 q 570 185 522 185 q 679 253 634 185 q 725 421 725 322 q 700 511 725 479 q 631 543 676 543 m 699 166 q 627 87 672 115 q 526 59 581 59 q 388 123 438 59 q 339 301 339 187 q 425 560 339 451 q 632 669 512 669 q 721 640 682 669 q 771 565 759 612 l 786 655 l 910 655 l 828 185 q 983 296 921 200 q 1045 522 1045 392 q 944 758 1045 666 q 683 849 844 849 q 461 798 564 849 q 286 649 358 746 q 200 485 229 575 q 171 299 171 396 q 272 1 171 117 q 532 -113 373 -113 q 674 -84 604 -113 q 808 1 745 -54 l 875 -105 q 698 -205 786 -172 q 524 -238 611 -238 q 366 -210 442 -238 q 229 -130 290 -183 q 100 50 144 -57 q 56 294 56 158 q 92 524 56 413 q 198 729 129 636 q 413 912 288 848 q 683 976 539 976 q 870 945 784 976 q 1024 851 956 913 q 1123 709 1089 790 q 1158 540 1158 628 q 1033 193 1158 326 q 706 59 908 59 q 697 59 703 59 q 689 58 692 58 q 684 58 686 58 q 680 59 682 59 l 699 166 "},"ö":{"x_min":45.4375,"x_max":813.875,"ha":859,"o":"m 468 604 q 328 518 383 604 q 274 301 274 433 q 303 191 274 229 q 389 153 333 153 q 529 239 474 153 q 584 458 584 325 q 555 566 584 529 q 468 604 525 604 m 486 777 q 726 691 638 777 q 813 457 813 605 q 786 289 813 370 q 706 141 758 208 q 559 21 644 61 q 369 -19 474 -19 q 132 66 219 -19 q 45 301 45 152 q 73 468 45 386 q 153 617 101 550 q 299 737 215 696 q 486 777 383 777 m 336 1074 l 481 1074 l 451 908 l 307 908 l 336 1074 m 579 1074 l 722 1074 l 693 908 l 549 908 l 579 1074 "},"i":{"x_min":38.65625,"x_max":442.203125,"ha":428,"o":"m 171 759 l 391 759 l 257 0 l 38 0 l 171 759 m 222 1055 l 442 1055 l 407 857 l 187 857 l 222 1055 "},"Õ":{"x_min":45.4375,"x_max":1017.328125,"ha":1062,"o":"m 769 597 q 720 779 769 716 q 579 841 672 841 q 375 719 457 841 q 292 415 292 598 q 340 233 292 298 q 474 169 388 169 q 599 202 545 169 q 693 299 654 235 q 749 438 729 361 q 769 597 769 516 m 613 1030 q 906 918 796 1030 q 1017 625 1017 806 q 983 392 1017 501 q 885 194 949 282 q 697 33 805 86 q 447 -19 588 -19 q 155 92 265 -19 q 45 385 45 204 q 79 619 45 510 q 177 817 112 729 q 364 978 255 925 q 613 1030 472 1030 m 648 1143 l 617 1168 q 593 1185 603 1181 q 572 1190 583 1190 q 534 1168 550 1190 q 511 1108 518 1146 l 428 1108 q 483 1242 443 1195 q 581 1289 524 1289 q 624 1281 604 1289 q 665 1254 644 1273 l 697 1226 q 718 1213 707 1218 q 739 1208 729 1208 q 779 1229 763 1208 q 801 1289 795 1249 l 886 1289 q 829 1155 869 1202 q 733 1108 789 1108 q 690 1116 709 1108 q 648 1143 671 1123 "},"þ":{"x_min":-12.203125,"x_max":845.75,"ha":895,"o":"m 278 109 l 207 -288 l -12 -288 l 222 1055 l 442 1055 l 370 648 q 476 746 421 714 q 596 777 531 777 q 778 696 711 777 q 845 474 845 615 q 822 304 845 387 q 754 153 798 221 q 629 24 699 68 q 479 -19 559 -19 q 360 11 409 -19 q 278 109 311 43 m 507 601 q 369 515 423 601 q 316 290 316 428 q 346 192 316 227 q 430 156 376 156 q 566 241 512 156 q 619 459 619 326 q 591 565 619 529 q 507 601 562 601 "},"]":{"x_min":-34.921875,"x_max":559.890625,"ha":571,"o":"m 343 -183 l -34 -183 l -9 -30 l 161 -30 l 326 902 l 154 902 l 180 1055 l 559 1055 l 343 -183 "},"m":{"x_min":38.65625,"x_max":1230.296875,"ha":1302,"o":"m 784 633 q 898 740 834 703 q 1032 777 963 777 q 1177 721 1124 777 q 1230 568 1230 666 q 1227 521 1230 548 q 1218 462 1224 495 l 1138 0 l 917 0 l 986 396 l 988 406 q 1003 514 1003 490 q 984 573 1003 551 q 932 594 965 594 q 826 537 869 594 q 763 373 782 480 l 697 0 l 477 0 l 547 396 q 560 473 556 446 q 564 514 564 499 q 545 573 564 552 q 492 594 526 594 q 386 535 432 594 q 323 373 341 476 l 257 0 l 38 0 l 171 759 l 391 759 l 370 648 q 480 745 422 712 q 600 777 538 777 q 722 737 672 777 q 784 633 773 697 "},"ꙅ":{"x_min":-13.765625,"x_max":672.25,"ha":744,"o":"m 126 735 q 276 767 208 757 q 405 777 344 777 q 624 719 559 777 q 667 540 688 661 q 578 373 647 428 q 361 298 511 318 l 321 293 q 228 268 254 284 q 197 219 204 252 q 220 161 191 181 q 313 141 249 141 q 456 159 384 141 q 599 212 527 177 l 566 27 q 412 -8 486 4 q 270 -19 338 -19 q 39 41 110 -19 q -9 223 -29 102 q 79 394 11 339 q 319 472 146 448 l 357 478 q 443 501 418 485 q 475 545 469 516 q 454 599 481 581 q 364 616 426 616 q 238 600 306 616 q 94 551 170 583 l 126 735 "},"8":{"x_min":27.125,"x_max":824.046875,"ha":869,"o":"m 419 453 q 300 399 348 453 q 252 266 252 345 q 283 177 252 210 q 368 144 314 144 q 488 197 441 144 q 536 330 536 250 q 504 419 536 386 q 419 453 473 453 m 269 539 q 171 618 204 569 q 138 735 138 667 q 240 952 138 873 q 521 1030 341 1030 q 744 971 665 1030 q 824 803 824 911 q 768 638 824 706 q 611 539 713 569 q 720 453 685 507 q 756 318 756 400 q 646 71 756 162 q 345 -19 537 -19 q 111 47 195 -19 q 27 233 27 113 q 91 422 27 341 q 269 539 155 503 m 499 866 q 400 826 437 866 q 362 719 362 786 q 389 644 362 673 q 461 616 417 616 q 561 656 523 616 q 598 763 598 697 q 571 838 598 810 q 499 866 544 866 "},"R":{"x_min":26.453125,"x_max":856.59375,"ha":962,"o":"m 459 563 q 580 604 539 563 q 621 726 621 646 q 592 799 621 776 q 503 823 564 823 l 406 823 l 360 563 l 459 563 m 328 383 l 261 0 l 26 0 l 204 1012 l 551 1012 q 778 950 701 1012 q 856 766 856 887 q 795 564 856 643 q 630 473 734 484 q 709 419 677 462 q 765 287 741 376 l 842 0 l 608 0 l 539 251 q 490 355 519 326 q 404 383 460 383 l 328 383 "},"ꙭ":{"x_min":44.453125,"x_max":1338.46875,"ha":1382,"o":"m 470 604 q 348 546 397 604 q 281 379 300 488 q 290 211 262 269 q 390 153 318 153 q 510 211 461 153 q 577 379 558 269 q 568 546 596 488 q 470 604 541 604 m 1023 777 q 1280 672 1199 777 q 1328 379 1361 566 q 1178 86 1296 191 q 884 -19 1060 -19 q 637 71 719 -19 q 360 -19 524 -19 q 102 86 183 -19 q 53 379 21 191 q 204 672 86 566 q 499 777 322 777 q 745 686 663 777 q 1023 777 859 777 m 993 604 q 872 546 921 604 q 805 379 824 488 q 813 211 786 269 q 914 153 841 153 q 1034 211 986 153 q 1101 379 1082 269 q 1092 546 1120 488 q 993 604 1064 604 m 343 511 l 562 511 l 516 249 l 297 249 l 343 511 m 867 511 l 1086 511 l 1040 249 l 821 249 l 867 511 "},"á":{"x_min":21.703125,"x_max":784.15625,"ha":843,"o":"m 411 341 q 287 313 329 341 q 246 230 246 285 q 270 165 246 189 q 339 141 295 141 q 451 186 405 141 q 511 314 496 231 l 516 341 l 411 341 m 752 433 l 676 0 l 457 0 l 476 112 q 362 12 422 44 q 232 -19 302 -19 q 78 36 135 -19 q 21 187 21 92 q 122 409 21 332 q 413 486 223 486 l 542 486 l 545 505 q 546 518 546 514 q 547 526 547 522 q 509 593 547 571 q 396 616 471 616 q 264 600 328 616 q 142 554 201 585 l 174 739 q 315 768 243 758 q 463 777 387 777 q 689 719 615 777 q 763 543 763 661 q 760 492 763 520 q 752 433 758 465 m 605 1110 l 784 1110 l 516 855 l 393 855 l 605 1110 "},"×":{"x_min":155.984375,"x_max":891.1875,"ha":1047,"o":"m 891 729 l 626 434 l 891 141 l 788 27 l 523 320 l 259 27 l 155 141 l 421 434 l 155 729 l 259 843 l 523 548 l 788 843 l 891 729 "},"o":{"x_min":45.4375,"x_max":813.875,"ha":859,"o":"m 468 604 q 328 518 383 604 q 274 301 274 433 q 303 191 274 229 q 389 153 333 153 q 529 239 474 153 q 584 458 584 325 q 555 566 584 529 q 468 604 525 604 m 486 777 q 726 691 638 777 q 813 457 813 605 q 786 289 813 370 q 706 141 758 208 q 559 21 644 61 q 369 -19 474 -19 q 132 66 219 -19 q 45 301 45 152 q 73 468 45 386 q 153 617 101 550 q 299 737 215 696 q 486 777 383 777 "},"5":{"x_min":16.28125,"x_max":805.046875,"ha":869,"o":"m 221 1012 l 805 1012 l 771 820 l 375 820 l 347 663 q 403 676 374 672 q 461 680 432 680 q 679 610 600 680 q 758 413 758 539 q 637 97 758 214 q 307 -19 515 -19 q 159 -3 231 -19 q 16 47 87 13 l 52 252 q 183 181 120 204 q 314 158 247 158 q 468 213 410 158 q 526 360 526 269 q 482 464 526 425 q 362 502 438 502 q 251 487 311 502 q 121 442 192 473 l 221 1012 "},"õ":{"x_min":45.4375,"x_max":813.875,"ha":859,"o":"m 468 604 q 328 518 383 604 q 274 301 274 433 q 303 191 274 229 q 389 153 333 153 q 529 239 474 153 q 584 458 584 325 q 555 566 584 529 q 468 604 525 604 m 486 777 q 726 691 638 777 q 813 457 813 605 q 786 289 813 370 q 706 141 758 208 q 559 21 644 61 q 369 -19 474 -19 q 132 66 219 -19 q 45 301 45 152 q 73 468 45 386 q 153 617 101 550 q 299 737 215 696 q 486 777 383 777 m 505 925 l 475 950 q 469 954 474 951 q 427 975 446 975 q 391 951 407 975 q 369 887 375 928 l 284 887 q 340 1030 300 980 q 438 1080 380 1080 q 480 1071 459 1080 q 523 1041 500 1062 l 555 1012 q 577 996 566 1002 q 596 991 587 991 q 635 1014 619 991 q 657 1079 651 1037 l 743 1079 q 687 936 727 986 q 590 886 647 886 q 551 894 569 886 q 505 925 533 902 "},"7":{"x_min":97.671875,"x_max":867.453125,"ha":869,"o":"m 180 1012 l 867 1012 l 839 864 l 332 0 l 97 0 l 579 820 l 147 820 l 180 1012 "},"K":{"x_min":26.453125,"x_max":1046.5,"ha":969,"o":"m 204 1012 l 438 1012 l 375 648 l 762 1012 l 1046 1012 l 523 520 l 917 0 l 641 0 l 335 422 l 261 0 l 26 0 l 204 1012 "},",":{"x_min":-42.734375,"x_max":320.125,"ha":475,"o":"m 100 262 l 320 262 l 283 55 l 87 -197 l -42 -197 l 63 55 l 100 262 "},"d":{"x_min":45.4375,"x_max":905.421875,"ha":895,"o":"m 383 156 q 520 242 467 156 q 573 467 573 328 q 544 566 573 531 q 461 601 514 601 q 324 516 378 601 q 271 298 271 431 q 300 192 271 229 q 383 156 328 156 m 613 648 l 685 1055 l 905 1055 l 720 0 l 499 0 l 520 109 q 415 11 470 43 q 295 -19 360 -19 q 112 61 179 -19 q 45 283 45 143 q 68 453 45 370 q 136 604 92 536 q 261 733 191 689 q 411 777 331 777 q 530 746 481 777 q 613 648 579 714 "},"¨":{"x_min":189.90625,"x_max":604.96875,"ha":625,"o":"m 218 1074 l 363 1074 l 333 908 l 189 908 l 218 1074 m 461 1074 l 604 1074 l 575 908 l 431 908 l 461 1074 "},"Ô":{"x_min":45.4375,"x_max":1017.328125,"ha":1062,"o":"m 769 597 q 720 779 769 716 q 579 841 672 841 q 375 719 457 841 q 292 415 292 598 q 340 233 292 298 q 474 169 388 169 q 599 202 545 169 q 693 299 654 235 q 749 438 729 361 q 769 597 769 516 m 613 1030 q 906 918 796 1030 q 1017 625 1017 806 q 983 392 1017 501 q 885 194 949 282 q 697 33 805 86 q 447 -19 588 -19 q 155 92 265 -19 q 45 385 45 204 q 79 619 45 510 q 177 817 112 729 q 364 978 255 925 q 613 1030 472 1030 m 560 1287 l 772 1287 l 865 1108 l 762 1108 l 661 1218 l 520 1108 l 411 1108 l 560 1287 "},"E":{"x_min":26.453125,"x_max":837.609375,"ha":854,"o":"m 204 1012 l 837 1012 l 803 815 l 404 815 l 370 626 l 746 626 l 710 429 l 336 429 l 295 197 l 707 197 l 674 0 l 26 0 l 204 1012 "},"Y":{"x_min":78.671875,"x_max":1011.234375,"ha":905,"o":"m 78 1012 l 314 1012 l 468 637 l 739 1012 l 1011 1012 l 561 422 l 487 0 l 252 0 l 326 422 l 78 1012 "},"\"":{"x_min":119.375,"x_max":532.40625,"ha":651,"o":"m 532 1012 l 532 636 l 387 636 l 387 1012 l 532 1012 m 263 1012 l 263 636 l 119 636 l 119 1012 l 263 1012 "},"ê":{"x_min":45.4375,"x_max":800.296875,"ha":848,"o":"m 786 351 l 778 312 l 267 312 q 266 300 267 308 q 265 288 265 293 q 305 178 265 215 q 425 141 345 141 q 571 164 495 141 q 732 233 648 187 l 698 44 q 540 -3 619 12 q 379 -19 461 -19 q 132 62 219 -19 q 45 294 45 144 q 72 462 45 381 q 153 612 100 544 q 304 735 217 693 q 498 777 392 777 q 718 695 637 777 q 800 474 800 613 q 796 417 800 447 q 786 351 793 387 m 579 462 q 582 480 581 471 q 583 498 583 489 q 554 584 583 552 q 474 616 524 616 q 365 577 411 616 q 297 462 320 538 l 579 462 m 470 1110 l 630 1110 l 741 855 l 633 855 l 538 1008 l 390 855 l 270 855 l 470 1110 "},"Ï":{"x_min":26.453125,"x_max":552.546875,"ha":465,"o":"m 204 1012 l 438 1012 l 261 0 l 26 0 l 204 1012 m 165 1287 l 309 1287 l 281 1121 l 137 1121 l 165 1287 m 406 1287 l 552 1287 l 522 1121 l 378 1121 l 406 1287 "},"Â":{"x_min":-81.71875,"x_max":863.734375,"ha":967,"o":"m 613 184 l 249 184 l 159 0 l -81 0 l 433 1012 l 702 1012 l 863 0 l 639 0 l 613 184 m 338 368 l 582 368 l 528 758 l 338 368 m 487 1287 l 699 1287 l 792 1108 l 689 1108 l 588 1218 l 447 1108 l 338 1108 l 487 1287 "},"Í":{"x_min":26.453125,"x_max":559.328125,"ha":465,"o":"m 204 1012 l 438 1012 l 261 0 l 26 0 l 204 1012 m 388 1287 l 559 1287 l 364 1108 l 238 1108 l 388 1287 "},"´":{"x_min":283.5,"x_max":674.15625,"ha":625,"o":"m 495 1110 l 674 1110 l 406 855 l 283 855 l 495 1110 "},"ì":{"x_min":38.65625,"x_max":391.328125,"ha":428,"o":"m 171 759 l 391 759 l 257 0 l 38 0 l 171 759 m 250 1110 l 377 855 l 257 855 l 77 1110 l 250 1110 "},"±":{"x_min":132.25,"x_max":914.921875,"ha":1047,"o":"m 596 870 l 596 630 l 914 630 l 914 470 l 596 470 l 596 230 l 451 230 l 451 470 l 132 470 l 132 630 l 451 630 l 451 870 l 596 870 m 132 161 l 914 161 l 914 0 l 132 0 l 132 161 "},"Ú":{"x_min":84.78125,"x_max":988.84375,"ha":1015,"o":"m 204 1012 l 438 1012 l 332 406 q 323 348 326 373 q 320 304 320 323 q 353 205 320 238 q 448 172 385 172 q 579 225 534 172 q 647 405 625 278 l 754 1012 l 988 1012 l 882 405 q 732 81 843 181 q 415 -19 621 -19 q 169 57 253 -19 q 84 280 84 134 q 87 335 84 305 q 97 405 90 365 l 204 1012 m 656 1287 l 827 1287 l 632 1108 l 506 1108 l 656 1287 "},"|":{"x_min":158.703125,"x_max":297.0625,"ha":456,"o":"m 297 1061 l 297 -327 l 158 -327 l 158 1061 l 297 1061 "},"§":{"x_min":-41.703125,"x_max":617.53125,"ha":625,"o":"m 617 991 l 591 837 q 492 877 536 864 q 411 890 448 890 q 333 869 362 890 q 304 815 304 849 q 319 777 304 794 q 369 743 334 760 l 424 715 q 570 611 531 662 q 609 484 609 560 q 562 337 609 401 q 425 233 515 272 q 477 179 460 208 q 493 112 493 149 q 407 -64 493 2 q 177 -132 321 -132 q 70 -122 125 -132 q -41 -92 15 -112 l -12 67 q 98 24 49 38 q 184 9 147 9 q 261 30 231 9 q 290 84 290 52 q 276 121 290 105 q 213 162 261 137 l 131 204 q 24 290 58 240 q -9 409 -9 340 q 34 557 -9 493 q 165 662 79 622 q 118 721 133 690 q 103 788 103 752 q 187 962 103 894 q 407 1030 272 1030 q 510 1021 458 1030 q 617 991 563 1011 m 270 579 q 196 534 222 564 q 169 462 169 504 q 199 392 169 421 q 328 319 228 362 q 404 368 377 337 q 431 437 431 399 q 396 510 431 478 q 270 579 361 541 "},"Ý":{"x_min":78.671875,"x_max":1011.234375,"ha":905,"o":"m 78 1012 l 314 1012 l 468 637 l 739 1012 l 1011 1012 l 561 422 l 487 0 l 252 0 l 326 422 l 78 1012 m 608 1287 l 779 1287 l 584 1108 l 458 1108 l 608 1287 "},"b":{"x_min":38.65625,"x_max":845.75,"ha":895,"o":"m 507 601 q 369 515 423 601 q 316 290 316 428 q 346 192 316 227 q 430 156 376 156 q 566 241 512 156 q 619 459 619 326 q 591 565 619 529 q 507 601 562 601 m 278 109 l 257 0 l 38 0 l 222 1055 l 442 1055 l 370 648 q 476 746 421 714 q 596 777 531 777 q 778 696 711 777 q 845 474 845 615 q 822 304 845 387 q 754 153 798 221 q 629 24 699 68 q 479 -19 559 -19 q 360 11 409 -19 q 278 109 311 43 "},"q":{"x_min":45.4375,"x_max":852.53125,"ha":895,"o":"m 613 648 l 632 759 l 852 759 l 668 -288 l 448 -288 l 518 109 q 415 11 470 43 q 295 -19 360 -19 q 112 61 179 -19 q 45 283 45 143 q 68 453 45 370 q 136 604 92 536 q 261 733 191 689 q 411 777 331 777 q 530 746 481 777 q 613 648 579 714 m 383 156 q 520 242 467 156 q 573 467 573 328 q 544 566 573 531 q 461 601 514 601 q 324 516 378 601 q 271 298 271 431 q 300 192 271 229 q 383 156 328 156 "},"Ö":{"x_min":45.4375,"x_max":1017.328125,"ha":1062,"o":"m 769 597 q 720 779 769 716 q 579 841 672 841 q 375 719 457 841 q 292 415 292 598 q 340 233 292 298 q 474 169 388 169 q 599 202 545 169 q 693 299 654 235 q 749 438 729 361 q 769 597 769 516 m 613 1030 q 906 918 796 1030 q 1017 625 1017 806 q 983 392 1017 501 q 885 194 949 282 q 697 33 805 86 q 447 -19 588 -19 q 155 92 265 -19 q 45 385 45 204 q 79 619 45 510 q 177 817 112 729 q 364 978 255 925 q 613 1030 472 1030 m 481 1287 l 625 1287 l 597 1121 l 453 1121 l 481 1287 m 722 1287 l 868 1287 l 838 1121 l 694 1121 l 722 1287 "},"z":{"x_min":-11.1875,"x_max":732.15625,"ha":727,"o":"m 136 759 l 732 759 l 702 590 l 276 173 l 629 173 l 599 0 l -11 0 l 17 169 l 444 585 l 106 585 l 136 759 "},"ꚍ":{"x_min":42.046875,"x_max":782.671875,"ha":724,"o":"m 68 759 l 782 759 l 756 609 l 510 609 l 459 313 q 462 187 442 222 q 540 159 481 153 l 554 160 l 526 1 l 442 0 q 266 79 319 -2 q 239 313 212 160 l 290 609 l 42 609 l 68 759 "},"Ꚋ":{"x_min":59.6875,"x_max":1079.046875,"ha":1179,"o":"m 94 1012 l 935 1012 l 900 815 l 597 815 l 564 626 l 883 626 q 1048 545 1000 626 q 1079 431 1079 495 q 1069 311 1079 366 l 1032 98 q 594 -278 966 -278 l 546 -278 l 581 -80 l 617 -80 q 796 98 766 -80 l 812 187 q 832 337 832 307 q 826 384 832 366 q 800 416 819 402 q 752 429 780 429 l 529 429 l 454 0 l 219 0 l 362 815 l 59 815 l 94 1012 "},"ã":{"x_min":21.703125,"x_max":763.671875,"ha":843,"o":"m 411 341 q 287 313 329 341 q 246 230 246 285 q 270 165 246 189 q 339 141 295 141 q 451 186 405 141 q 511 314 496 231 l 516 341 l 411 341 m 752 433 l 676 0 l 457 0 l 476 112 q 362 12 422 44 q 232 -19 302 -19 q 78 36 135 -19 q 21 187 21 92 q 122 409 21 332 q 413 486 223 486 l 542 486 l 545 505 q 546 518 546 514 q 547 526 547 522 q 509 593 547 571 q 396 616 471 616 q 264 600 328 616 q 142 554 201 585 l 174 739 q 315 768 243 758 q 463 777 387 777 q 689 719 615 777 q 763 543 763 661 q 760 492 763 520 q 752 433 758 465 m 497 925 l 467 950 q 461 954 466 951 q 419 975 438 975 q 383 951 399 975 q 361 887 367 928 l 276 887 q 332 1030 292 980 q 430 1080 372 1080 q 472 1071 451 1080 q 515 1041 492 1062 l 547 1012 q 569 996 558 1002 q 588 991 579 991 q 627 1014 611 991 q 649 1079 643 1037 l 735 1079 q 679 936 719 986 q 582 886 639 886 q 543 894 561 886 q 497 925 525 902 "},"æ":{"x_min":21.703125,"x_max":1260.140625,"ha":1310,"o":"m 411 341 q 287 313 329 341 q 246 230 246 285 q 270 165 246 189 q 339 141 295 141 q 451 186 405 141 q 511 314 496 231 l 516 341 l 411 341 m 177 739 q 317 768 248 758 q 448 777 385 777 q 599 753 539 777 q 693 676 659 728 q 816 753 752 728 q 961 777 881 777 q 1178 695 1097 777 q 1260 476 1260 612 q 1257 414 1260 445 q 1247 351 1254 383 l 1239 312 l 729 312 q 728 300 729 308 q 727 288 727 293 q 767 178 727 215 q 887 141 807 141 q 1031 164 955 141 q 1193 233 1108 187 l 1160 44 q 1000 -3 1080 12 q 838 -19 921 -19 q 660 15 733 -19 q 548 120 588 50 q 402 14 477 49 q 242 -19 326 -19 q 80 35 138 -19 q 21 185 21 90 q 122 409 21 332 q 416 486 223 486 l 541 486 l 545 505 q 546 518 546 514 q 547 526 547 522 q 509 593 547 571 q 398 616 472 616 q 265 600 328 616 q 145 554 202 585 l 177 739 m 1041 462 q 1044 480 1043 471 q 1045 498 1045 489 q 1015 584 1045 552 q 936 616 986 616 q 826 577 872 616 q 758 462 781 537 l 1041 462 "},"®":{"x_min":172.953125,"x_max":1077.015625,"ha":1250,"o":"m 625 902 q 487 873 551 902 q 370 784 424 843 q 291 655 318 725 q 265 502 265 585 q 291 350 265 420 q 370 221 318 280 q 487 133 423 162 q 625 104 551 104 q 763 133 699 104 q 878 221 826 162 q 958 350 931 280 q 985 502 985 420 q 958 655 985 585 q 878 784 931 725 q 761 873 825 844 q 625 902 698 902 m 590 702 l 569 702 l 569 562 l 590 562 q 661 580 637 562 q 686 633 686 598 q 662 685 686 668 q 590 702 638 702 m 613 796 q 773 755 720 796 q 826 633 826 715 q 794 537 826 575 q 704 487 762 499 q 750 445 729 472 q 790 379 771 418 l 857 229 l 717 229 l 652 373 q 611 448 629 426 q 576 470 594 470 l 569 470 l 569 229 l 438 229 l 438 796 l 613 796 m 625 1007 q 797 969 717 1007 q 944 858 878 932 q 1044 695 1011 784 q 1077 502 1077 607 q 1044 310 1077 399 q 944 148 1011 222 q 797 37 878 74 q 625 0 717 0 q 452 37 532 0 q 305 148 371 74 q 205 310 238 222 q 172 502 172 399 q 205 695 172 607 q 305 858 238 784 q 452 969 371 932 q 625 1007 532 1007 "},"É":{"x_min":26.453125,"x_max":837.609375,"ha":854,"o":"m 204 1012 l 837 1012 l 803 815 l 404 815 l 370 626 l 746 626 l 710 429 l 336 429 l 295 197 l 707 197 l 674 0 l 26 0 l 204 1012 m 606 1287 l 777 1287 l 582 1108 l 456 1108 l 606 1287 "},"~":{"x_min":132.25,"x_max":914.921875,"ha":1047,"o":"m 914 576 l 914 411 q 795 333 850 356 q 682 309 741 309 q 529 349 617 309 q 516 355 521 353 q 503 361 512 357 q 351 402 408 402 q 244 376 297 402 q 132 294 192 350 l 132 459 q 252 537 198 514 q 364 560 306 560 q 517 521 430 560 q 531 515 526 517 q 544 509 535 513 q 696 467 638 467 q 800 493 748 467 q 914 576 851 518 "},"³":{"x_min":50.1875,"x_max":533.765625,"ha":547,"o":"m 406 759 q 476 719 452 750 q 499 636 499 687 q 428 493 499 543 q 225 442 356 442 q 132 451 176 442 q 50 474 88 459 l 70 591 q 142 554 105 567 q 215 541 178 541 q 319 567 281 541 q 356 638 356 593 q 326 692 356 675 q 232 710 295 710 l 185 710 l 202 803 l 255 803 q 354 822 320 803 q 388 878 388 842 q 365 917 388 904 q 297 930 342 930 q 225 921 264 930 q 139 894 186 912 l 158 1007 q 247 1024 202 1018 q 337 1030 293 1030 q 482 996 432 1030 q 533 900 533 963 q 499 807 533 845 q 406 759 464 769 "},"¡":{"x_min":86.140625,"x_max":484.25,"ha":570,"o":"m 441 771 l 221 771 l 263 1012 l 484 1012 l 441 771 m 306 0 l 86 0 l 155 388 l 234 672 l 392 672 l 375 388 l 306 0 "},"Ꚍ":{"x_min":59.6875,"x_max":935.265625,"ha":853,"o":"m 94 1012 l 935 1012 l 900 815 l 597 815 l 520 376 q 637 197 489 197 l 674 197 l 639 0 l 592 0 q 328 93 404 0 q 285 376 252 187 l 362 815 l 59 815 l 94 1012 "},"ꙩ":{"x_min":45.4375,"x_max":813.875,"ha":859,"o":"m 343 511 l 562 511 l 516 249 l 297 249 l 343 511 m 468 604 q 328 518 383 604 q 274 301 274 433 q 303 191 274 229 q 389 153 333 153 q 529 239 474 153 q 584 458 584 325 q 555 566 584 529 q 468 604 525 604 m 486 777 q 726 691 638 777 q 813 457 813 605 q 786 289 813 370 q 706 141 758 208 q 559 21 644 61 q 369 -19 474 -19 q 132 66 219 -19 q 45 301 45 152 q 73 468 45 386 q 153 617 101 550 q 299 737 215 696 q 486 777 383 777 "},"[":{"x_min":-12.203125,"x_max":582.59375,"ha":571,"o":"m 204 1055 l 582 1055 l 554 902 l 385 902 l 221 -30 l 392 -30 l 364 -183 l -12 -183 l 204 1055 "},"L":{"x_min":26.453125,"x_max":707.390625,"ha":796,"o":"m 204 1012 l 438 1012 l 295 197 l 707 197 l 674 0 l 26 0 l 204 1012 "}," ":{"x_min":0,"x_max":0,"ha":435},"ꙫ":{"x_min":46.421875,"x_max":1038.765625,"ha":1084,"o":"m 371 484 l 530 484 l 493 276 l 335 276 l 371 484 m 591 484 l 750 484 l 713 276 l 554 276 l 591 484 m 583 604 q 377 546 455 604 q 281 379 300 488 q 319 211 262 269 q 503 153 375 153 q 707 211 630 153 q 803 379 784 269 q 765 546 822 488 q 583 604 709 604 m 613 777 q 953 672 842 777 q 1031 379 1064 566 q 850 86 998 191 q 473 -19 703 -19 q 132 86 243 -19 q 53 379 21 191 q 234 672 86 566 q 613 777 382 777 "},"%":{"x_min":69.171875,"x_max":1183.5,"ha":1252,"o":"m 954 417 q 868 360 902 417 q 834 213 834 303 q 853 125 834 154 q 910 95 872 95 q 996 152 963 95 q 1030 301 1030 209 q 1010 388 1030 358 q 954 417 991 417 m 972 531 q 1125 473 1068 531 q 1183 320 1183 415 q 1102 74 1183 168 q 891 -19 1022 -19 q 737 39 795 -19 q 680 193 680 97 q 760 437 680 343 q 972 531 841 531 m 324 -19 l 174 -19 l 929 1030 l 1078 1030 l 324 -19 m 362 1030 q 515 972 457 1030 q 573 819 573 914 q 492 573 573 668 q 280 479 411 479 q 126 537 184 479 q 69 690 69 594 q 150 935 69 841 q 362 1030 231 1030 m 343 916 q 257 859 290 916 q 223 712 223 802 q 242 622 223 653 q 298 592 261 592 q 384 650 351 592 q 418 800 418 708 q 399 887 418 857 q 343 916 380 916 "},"P":{"x_min":26.453125,"x_max":899.328125,"ha":916,"o":"m 204 1012 l 594 1012 q 818 939 737 1012 q 899 737 899 866 q 872 586 899 657 q 795 461 845 514 q 666 377 741 403 q 477 351 590 351 l 322 351 l 261 0 l 26 0 l 204 1012 m 406 823 l 356 540 l 486 540 q 613 583 569 540 q 657 710 657 627 q 626 794 657 765 q 535 823 594 823 l 406 823 "},"À":{"x_min":-81.71875,"x_max":863.734375,"ha":967,"o":"m 613 184 l 249 184 l 159 0 l -81 0 l 433 1012 l 702 1012 l 863 0 l 639 0 l 613 184 m 338 368 l 582 368 l 528 758 l 338 368 m 573 1287 l 661 1108 l 552 1108 l 412 1287 l 573 1287 "},"_":{"x_min":-12.203125,"x_max":637.53125,"ha":625,"o":"m 637 -198 l 637 -327 l -12 -327 l -12 -198 l 637 -198 "},"ñ":{"x_min":38.65625,"x_max":817.265625,"ha":890,"o":"m 806 462 l 725 0 l 505 0 l 575 396 q 586 461 582 434 q 590 503 590 488 q 568 571 590 547 q 507 594 546 594 q 390 536 439 594 q 323 373 342 477 l 257 0 l 38 0 l 171 759 l 391 759 l 370 648 q 492 746 431 714 q 619 777 553 777 q 766 722 714 777 q 817 568 817 668 q 814 520 817 546 q 806 462 811 493 m 519 925 l 489 950 q 483 954 488 951 q 441 975 460 975 q 405 951 421 975 q 383 887 389 928 l 298 887 q 354 1030 314 980 q 452 1080 394 1080 q 494 1071 473 1080 q 537 1041 514 1062 l 569 1012 q 591 996 580 1002 q 610 991 601 991 q 649 1014 633 991 q 671 1079 665 1037 l 757 1079 q 701 936 741 986 q 604 886 661 886 q 565 894 583 886 q 519 925 547 902 "},"+":{"x_min":132.25,"x_max":914.921875,"ha":1047,"o":"m 596 870 l 596 515 l 914 515 l 914 355 l 596 355 l 596 0 l 451 0 l 451 355 l 132 355 l 132 515 l 451 515 l 451 870 l 596 870 "},"½":{"x_min":69.421875,"x_max":1295.1875,"ha":1294,"o":"m 88 559 l 213 559 l 276 912 l 133 877 l 152 986 l 300 1019 l 434 1019 l 353 559 l 479 559 l 460 453 l 69 453 l 88 559 m 1015 114 l 1245 114 l 1224 0 l 812 0 l 831 103 l 1054 284 q 1126 357 1103 323 q 1150 419 1150 390 q 1131 461 1150 446 q 1076 477 1111 477 q 989 461 1034 477 q 901 416 944 446 l 923 542 q 1019 569 973 560 q 1107 577 1064 577 q 1246 540 1198 577 q 1295 436 1295 503 q 1262 332 1295 382 q 1156 224 1229 281 l 1015 114 m 361 -19 l 212 -19 l 965 1030 l 1115 1030 l 361 -19 "},"Ꙧ":{"x_min":26.453125,"x_max":1629.765625,"ha":1575,"o":"m 204 1012 l 492 1012 l 609 474 l 917 1012 l 1629 1012 l 1595 815 l 1182 815 l 1040 0 l 817 0 l 947 747 l 631 194 l 504 194 l 379 747 l 248 0 l 26 0 l 204 1012 "},"Æ":{"x_min":-97.671875,"x_max":1340.171875,"ha":1356,"o":"m 600 838 l 372 425 l 602 425 l 674 838 l 600 838 m 472 1012 l 1340 1012 l 1304 815 l 906 815 l 874 626 l 1248 626 l 1214 429 l 838 429 l 798 197 l 1209 197 l 1176 0 l 528 0 l 570 237 l 269 237 l 137 0 l -97 0 l 472 1012 "},"ꙍ":{"x_min":39.34375,"x_max":1411.375,"ha":1466,"o":"m 1360 759 q 1407 547 1397 672 q 1411 470 1411 507 q 1398 318 1411 392 q 1294 78 1371 164 q 1074 -18 1209 -18 q 962 32 1026 -18 q 846 126 905 79 q 699 177 773 177 q 534 126 625 177 l 385 32 q 255 -18 304 -18 q 69 78 120 -18 q 39 215 39 132 q 49 318 39 262 q 120 547 68 427 q 241 759 173 672 l 428 759 q 335 558 383 691 q 274 347 290 433 q 267 271 267 303 q 332 174 267 174 q 461 224 367 174 q 609 288 565 280 q 720 300 668 300 q 828 288 773 300 q 954 224 869 279 q 1064 174 1032 174 q 1182 347 1152 174 q 1197 539 1197 427 q 1197 558 1197 548 q 1173 759 1194 691 l 1360 759 "},"Ë":{"x_min":26.453125,"x_max":837.609375,"ha":854,"o":"m 204 1012 l 837 1012 l 803 815 l 404 815 l 370 626 l 746 626 l 710 429 l 336 429 l 295 197 l 707 197 l 674 0 l 26 0 l 204 1012 m 383 1287 l 527 1287 l 499 1121 l 355 1121 l 383 1287 m 624 1287 l 770 1287 l 740 1121 l 596 1121 l 624 1287 "},"'":{"x_min":119.375,"x_max":263.828125,"ha":383,"o":"m 263 1012 l 263 636 l 119 636 l 119 1012 l 263 1012 "},"ª":{"x_min":53.578125,"x_max":658.546875,"ha":705,"o":"m 77 388 l 575 388 l 551 252 l 53 252 l 77 388 m 422 733 q 298 713 332 733 q 263 647 263 694 q 282 599 263 617 q 333 581 301 581 q 424 620 385 581 q 474 718 464 658 l 477 733 l 422 733 m 652 790 l 600 486 l 448 486 l 463 571 q 377 495 423 519 q 269 472 331 472 q 150 509 193 472 q 108 615 108 547 q 183 773 108 720 q 407 826 259 826 l 493 826 l 496 840 q 497 846 497 843 q 497 857 497 849 q 474 902 497 887 q 404 918 450 918 q 297 906 350 918 q 192 870 244 894 l 213 992 q 326 1021 273 1011 q 425 1030 380 1030 q 599 987 539 1030 q 658 861 658 944 q 657 823 658 840 q 652 790 655 805 "},"Ꚕ":{"x_min":132.25,"x_max":991.5625,"ha":1010,"o":"m 489 699 l 476 626 l 795 626 q 961 545 911 626 q 991 431 991 496 q 981 311 991 367 l 927 0 l 692 0 l 724 187 q 745 334 745 307 q 738 385 745 366 q 712 416 731 404 q 663 429 692 429 l 442 429 l 367 0 l 132 0 l 255 699 q 361 931 280 849 q 567 1012 442 1012 l 739 1012 l 712 853 l 625 853 q 534 821 563 853 q 489 699 505 790 "},"ð":{"x_min":45.4375,"x_max":847.78125,"ha":859,"o":"m 584 503 q 521 531 552 522 q 459 540 491 540 q 323 476 373 540 q 274 305 274 413 q 304 192 274 231 q 392 153 335 153 q 533 239 478 153 q 588 459 588 325 q 585 495 588 468 q 584 503 585 500 m 735 746 q 793 611 773 683 q 813 461 813 539 q 786 290 813 373 q 705 140 758 208 q 558 21 643 61 q 368 -19 473 -19 q 133 65 221 -19 q 45 288 45 149 q 156 597 45 478 q 446 715 267 715 q 502 710 476 715 q 551 697 529 706 l 459 843 l 223 769 l 202 857 l 410 921 l 326 1055 l 541 1055 l 591 976 l 826 1048 l 847 962 l 640 898 l 735 746 "},"T":{"x_min":59.6875,"x_max":935.265625,"ha":853,"o":"m 94 1012 l 935 1012 l 900 815 l 597 815 l 454 0 l 219 0 l 362 815 l 59 815 l 94 1012 "},"ꙧ":{"x_min":35.265625,"x_max":1279.125,"ha":1245,"o":"m 168 759 l 419 759 l 507 379 l 727 759 l 1279 759 l 1253 609 l 953 609 l 846 0 l 628 0 l 628 0 l 703 428 l 539 145 l 395 145 l 329 430 l 253 0 l 35 0 l 168 759 "},"Þ":{"x_min":26.453125,"x_max":868.796875,"ha":928,"o":"m 204 1012 l 438 1012 l 412 861 l 562 861 q 787 788 706 861 q 868 585 868 715 q 842 435 868 506 q 765 311 815 364 q 634 226 710 252 q 446 200 558 200 l 295 200 l 261 0 l 26 0 l 204 1012 m 379 673 l 330 388 l 454 388 q 581 432 537 388 q 626 559 626 476 q 595 644 626 615 q 504 673 564 673 l 379 673 "},"j":{"x_min":-160.390625,"x_max":441.875,"ha":428,"o":"m 171 759 l 391 759 l 259 13 q 154 -222 231 -145 q -51 -299 78 -299 l -160 -299 l -132 -140 l -94 -140 q -4 -109 -32 -140 q 39 13 24 -78 l 171 759 m 222 1055 l 441 1055 l 407 857 l 186 857 l 222 1055 "},"1":{"x_min":53.578125,"x_max":722.984375,"ha":869,"o":"m 86 180 l 293 180 l 407 834 l 185 786 l 217 963 l 437 1012 l 661 1012 l 516 180 l 722 180 l 691 0 l 53 0 l 86 180 "},"ä":{"x_min":21.703125,"x_max":763.671875,"ha":843,"o":"m 411 341 q 287 313 329 341 q 246 230 246 285 q 270 165 246 189 q 339 141 295 141 q 451 186 405 141 q 511 314 496 231 l 516 341 l 411 341 m 752 433 l 676 0 l 457 0 l 476 112 q 362 12 422 44 q 232 -19 302 -19 q 78 36 135 -19 q 21 187 21 92 q 122 409 21 332 q 413 486 223 486 l 542 486 l 545 505 q 546 518 546 514 q 547 526 547 522 q 509 593 547 571 q 396 616 471 616 q 264 600 328 616 q 142 554 201 585 l 174 739 q 315 768 243 758 q 463 777 387 777 q 689 719 615 777 q 763 543 763 661 q 760 492 763 520 q 752 433 758 465 m 328 1074 l 473 1074 l 443 908 l 299 908 l 328 1074 m 571 1074 l 714 1074 l 685 908 l 541 908 l 571 1074 "},"<":{"x_min":132.25,"x_max":914.921875,"ha":1047,"o":"m 914 659 l 326 434 l 914 210 l 914 41 l 132 355 l 132 515 l 914 829 l 914 659 "},"£":{"x_min":8.8125,"x_max":864.0625,"ha":869,"o":"m 864 994 l 830 800 q 751 838 794 825 q 665 852 708 852 q 545 810 588 852 q 487 678 503 769 l 467 563 l 695 563 l 668 401 l 438 401 l 400 180 l 729 180 l 698 0 l 8 0 l 40 180 l 177 180 l 216 401 l 99 401 l 126 563 l 244 563 l 265 678 q 388 946 296 862 q 649 1030 480 1030 q 758 1021 705 1030 q 864 994 812 1012 "},"¹":{"x_min":83.421875,"x_max":493.75,"ha":547,"o":"m 102 559 l 227 559 l 290 912 l 147 877 l 166 986 l 314 1019 l 448 1019 l 367 559 l 493 559 l 474 453 l 83 453 l 102 559 "},"t":{"x_min":53.578125,"x_max":636.171875,"ha":598,"o":"m 449 975 l 412 759 l 636 759 l 604 585 l 381 585 l 325 264 q 321 246 322 253 q 320 231 320 238 q 339 187 320 200 q 402 173 358 173 l 515 173 l 484 0 l 300 0 q 149 46 201 0 q 97 179 97 92 q 99 219 97 198 q 105 263 101 241 l 161 585 l 53 585 l 83 759 l 192 759 l 229 975 l 449 975 "},"¬":{"x_min":132.25,"x_max":914.921875,"ha":1047,"o":"m 132 616 l 914 616 l 914 194 l 771 194 l 771 455 l 132 455 l 132 616 "},"Ꙗ":{"x_min":26.453125,"x_max":1271.671875,"ha":1375,"o":"m 746 368 l 991 368 l 936 758 l 746 368 m 1022 184 l 657 184 l 567 0 l 326 0 l 533 406 l 332 406 l 261 0 l 26 0 l 203 1012 l 438 1012 l 366 604 l 634 604 l 841 1012 l 1110 1012 l 1271 0 l 1047 0 l 1022 184 "},"ù":{"x_min":75.28125,"x_max":851.84375,"ha":890,"o":"m 84 295 l 164 759 l 383 759 l 314 364 q 304 298 307 325 q 300 255 300 271 q 321 189 300 212 q 382 165 343 165 q 499 223 450 165 q 566 385 548 282 l 632 759 l 851 759 l 718 0 l 498 0 l 518 111 q 400 12 462 45 q 271 -19 339 -19 q 126 35 177 -19 q 75 190 75 90 q 77 240 75 214 q 84 295 80 267 m 468 1110 l 595 855 l 475 855 l 295 1110 l 468 1110 "},"W":{"x_min":133.609375,"x_max":1429.015625,"ha":1379,"o":"m 133 1012 l 351 1012 l 379 276 l 665 1012 l 888 1012 l 918 276 l 1195 1012 l 1429 1012 l 1036 0 l 770 0 l 739 769 l 444 0 l 172 0 l 133 1012 "},"ꚕ":{"x_min":12.890625,"x_max":790.546875,"ha":890,"o":"m 780 462 l 699 0 l 480 0 l 493 75 l 541 352 q 562 489 558 452 q 558 544 564 526 q 529 581 549 568 q 481 594 510 594 q 363 535 413 594 q 296 373 314 477 l 231 0 l 12 0 l 142 741 q 250 975 168 893 q 455 1055 330 1055 l 626 1055 l 599 895 l 497 895 q 407 864 436 895 q 362 741 378 833 l 345 649 q 466 746 406 715 q 595 777 527 777 q 760 697 713 777 q 780 462 807 616 "},"ï":{"x_min":38.65625,"x_max":518.96875,"ha":428,"o":"m 171 759 l 391 759 l 257 0 l 38 0 l 171 759 m 132 1074 l 277 1074 l 247 908 l 103 908 l 132 1074 m 375 1074 l 518 1074 l 489 908 l 345 908 l 375 1074 "},">":{"x_min":132.25,"x_max":914.921875,"ha":1047,"o":"m 132 659 l 132 829 l 914 515 l 914 355 l 132 41 l 132 210 l 721 434 l 132 659 "},"v":{"x_min":78.671875,"x_max":847.78125,"ha":815,"o":"m 78 759 l 280 759 l 368 229 l 626 759 l 847 759 l 446 0 l 215 0 l 78 759 "},"û":{"x_min":75.28125,"x_max":851.84375,"ha":890,"o":"m 84 295 l 164 759 l 383 759 l 314 364 q 304 298 307 325 q 300 255 300 271 q 321 189 300 212 q 382 165 343 165 q 499 223 450 165 q 566 385 548 282 l 632 759 l 851 759 l 718 0 l 498 0 l 518 111 q 400 12 462 45 q 271 -19 339 -19 q 126 35 177 -19 q 75 190 75 90 q 77 240 75 214 q 84 295 80 267 m 464 1110 l 624 1110 l 735 855 l 627 855 l 532 1008 l 384 855 l 264 855 l 464 1110 "},"Ò":{"x_min":45.4375,"x_max":1017.328125,"ha":1062,"o":"m 769 597 q 720 779 769 716 q 579 841 672 841 q 375 719 457 841 q 292 415 292 598 q 340 233 292 298 q 474 169 388 169 q 599 202 545 169 q 693 299 654 235 q 749 438 729 361 q 769 597 769 516 m 613 1030 q 906 918 796 1030 q 1017 625 1017 806 q 983 392 1017 501 q 885 194 949 282 q 697 33 805 86 q 447 -19 588 -19 q 155 92 265 -19 q 45 385 45 204 q 79 619 45 510 q 177 817 112 729 q 364 978 255 925 q 613 1030 472 1030 m 646 1287 l 734 1108 l 625 1108 l 485 1287 l 646 1287 "},"Ꙣ":{"x_min":-32.890625,"x_max":1429.359375,"ha":1375,"o":"m 385 197 l 639 197 l 747 815 l 550 815 l 539 753 q 385 197 460 316 m 108 197 q 209 313 180 244 q 315 821 238 378 l 349 1012 l 1429 1012 l 1394 815 l 982 815 l 874 197 l 1003 197 l 930 -217 l 753 -217 l 790 0 l 182 0 l 144 -217 l -32 -217 l 39 197 l 108 197 "},"Ꙑ":{"x_min":115.296875,"x_max":1516.8125,"ha":1542,"o":"m 1282 1012 l 1516 1012 l 1339 0 l 1104 0 l 1282 1012 m 539 177 l 677 177 q 841 304 819 177 q 845 336 845 321 q 721 429 845 429 l 583 429 l 539 177 m 149 1012 l 685 1012 l 618 626 l 773 626 q 1085 391 1085 626 q 1078 312 1085 354 q 663 0 1022 0 l 273 0 l 416 815 l 115 815 l 149 1012 "},"&":{"x_min":34.59375,"x_max":1015.984375,"ha":1090,"o":"m 535 620 l 716 366 q 781 469 754 409 q 826 607 809 529 l 1015 607 q 941 391 990 488 q 819 218 893 294 l 975 0 l 708 0 l 657 71 q 513 3 585 25 q 366 -19 441 -19 q 125 63 217 -19 q 34 282 34 147 q 92 470 34 384 q 274 633 151 556 q 250 693 258 663 q 242 756 242 724 q 334 953 242 876 q 572 1030 426 1030 q 686 1021 628 1030 q 806 991 744 1011 l 773 803 q 672 851 720 835 q 576 866 624 866 q 493 842 523 866 q 462 776 462 817 q 480 711 462 750 q 535 620 499 671 m 351 503 q 277 424 302 469 q 251 327 251 379 q 298 205 251 255 q 413 155 344 155 q 486 169 450 155 q 558 212 522 183 l 351 503 "},"Ð":{"x_min":-3.046875,"x_max":1003.4375,"ha":1056,"o":"m 424 815 l 389 612 l 539 612 l 509 436 l 358 436 l 315 197 l 399 197 q 660 300 564 197 q 757 576 757 402 q 694 754 757 694 q 506 815 631 815 l 424 815 m 223 1012 l 471 1012 q 736 989 648 1012 q 883 910 825 965 q 972 777 942 855 q 1003 600 1003 698 q 951 341 1003 463 q 808 136 900 219 q 621 31 728 62 q 293 0 515 0 l 45 0 l 122 436 l -3 436 l 28 612 l 153 612 l 223 1012 "},"I":{"x_min":26.453125,"x_max":438.8125,"ha":465,"o":"m 204 1012 l 438 1012 l 261 0 l 26 0 l 204 1012 "},"G":{"x_min":45.4375,"x_max":972.578125,"ha":1025,"o":"m 851 75 q 666 3 762 27 q 461 -19 571 -19 q 156 89 267 -19 q 45 388 45 199 q 80 618 45 511 q 183 815 114 726 q 382 977 267 923 q 644 1030 497 1030 q 808 1011 725 1030 q 972 955 891 992 l 936 746 q 790 817 862 794 q 647 841 719 841 q 391 725 490 841 q 292 425 292 608 q 349 236 292 303 q 512 169 407 169 q 580 174 546 169 q 649 190 615 179 l 685 387 l 541 387 l 571 562 l 936 562 l 851 75 "},"`":{"x_min":163.453125,"x_max":463.90625,"ha":625,"o":"m 336 1110 l 463 855 l 343 855 l 163 1110 l 336 1110 "},"·":{"x_min":105.125,"x_max":370.984375,"ha":475,"o":"m 151 613 l 370 613 l 324 351 l 105 351 l 151 613 "},"r":{"x_min":38.65625,"x_max":680.9375,"ha":617,"o":"m 642 552 q 592 574 619 567 q 533 581 564 581 q 394 522 449 581 q 320 349 339 462 l 257 0 l 38 0 l 171 759 l 391 759 l 367 629 q 475 739 411 701 q 619 777 540 777 q 646 776 632 777 q 680 772 661 775 l 642 552 "},"¿":{"x_min":46.125,"x_max":609.71875,"ha":725,"o":"m 330 670 l 550 670 l 543 636 q 508 540 534 581 q 402 429 482 498 l 356 388 q 286 311 307 347 q 265 240 265 276 q 289 180 265 201 q 360 160 314 160 q 471 183 408 160 q 602 250 533 206 l 564 37 q 423 -4 487 8 q 300 -18 358 -18 q 113 39 181 -18 q 46 198 46 97 q 78 343 46 279 q 188 476 111 406 l 234 516 q 302 586 285 560 q 324 640 320 611 l 330 670 m 567 771 l 347 771 l 389 1012 l 609 1012 l 567 771 "},"ý":{"x_min":0,"x_max":858.625,"ha":815,"o":"m 82 759 l 288 759 l 382 233 l 625 759 l 858 759 l 425 -71 q 291 -256 353 -212 q 132 -299 229 -299 l 0 -299 l 22 -140 l 91 -140 q 174 -120 145 -140 q 227 -50 204 -100 l 247 -9 l 82 759 m 590 1110 l 769 1110 l 501 855 l 378 855 l 590 1110 "},"x":{"x_min":-51.875,"x_max":838.640625,"ha":806,"o":"m 276 388 l 94 759 l 321 759 l 423 534 l 600 759 l 838 759 l 527 389 l 717 0 l 490 0 l 382 240 l 185 0 l -51 0 l 276 388 "},"è":{"x_min":45.4375,"x_max":800.296875,"ha":848,"o":"m 786 351 l 778 312 l 267 312 q 266 300 267 308 q 265 288 265 293 q 305 178 265 215 q 425 141 345 141 q 571 164 495 141 q 732 233 648 187 l 698 44 q 540 -3 619 12 q 379 -19 461 -19 q 132 62 219 -19 q 45 294 45 144 q 72 462 45 381 q 153 612 100 544 q 304 735 217 693 q 498 777 392 777 q 718 695 637 777 q 800 474 800 613 q 796 417 800 447 q 786 351 793 387 m 579 462 q 582 480 581 471 q 583 498 583 489 q 554 584 583 552 q 474 616 524 616 q 365 577 411 616 q 297 462 320 538 l 579 462 m 474 1110 l 601 855 l 481 855 l 301 1110 l 474 1110 "},"º":{"x_min":57.65625,"x_max":680.9375,"ha":705,"o":"m 438 1030 q 615 969 550 1030 q 680 804 680 908 q 591 564 680 655 q 352 473 501 473 q 174 535 241 473 q 108 699 108 597 q 199 939 108 847 q 438 1030 290 1030 m 81 388 l 583 388 l 560 252 l 57 252 l 81 388 m 423 915 q 323 852 363 915 q 283 694 283 790 q 305 615 283 642 q 367 588 326 588 q 467 651 427 588 q 507 809 507 713 q 485 888 507 860 q 423 915 463 915 "},"Ø":{"x_min":-58.65625,"x_max":1120.09375,"ha":1062,"o":"m 729 765 q 668 822 705 803 q 580 841 631 841 q 375 720 457 841 q 293 415 293 599 q 295 364 293 400 q 295 360 295 364 l 729 765 m 95 174 q 57 278 70 225 q 45 385 45 331 q 78 619 45 510 q 177 817 112 729 q 363 978 256 925 q 613 1030 471 1030 q 775 1004 704 1030 q 900 925 846 978 l 1057 1070 l 1120 987 l 962 843 q 1003 736 989 791 q 1017 623 1017 681 q 983 390 1017 500 q 884 193 949 280 q 696 33 805 86 q 447 -19 588 -19 q 285 8 357 -19 q 157 91 213 35 l 3 -52 l -58 30 l 95 174 m 328 251 q 389 190 352 211 q 474 169 426 169 q 599 202 544 169 q 692 299 654 235 q 749 439 729 362 q 770 596 770 517 q 766 649 770 613 q 764 657 765 654 l 328 251 "},"÷":{"x_min":132.25,"x_max":914.921875,"ha":1047,"o":"m 430 267 l 617 267 l 617 58 l 430 58 l 430 267 m 430 812 l 617 812 l 617 602 l 430 602 l 430 812 m 132 515 l 914 515 l 914 355 l 132 355 l 132 515 "},"h":{"x_min":38.65625,"x_max":817.265625,"ha":890,"o":"m 806 462 l 725 0 l 505 0 l 575 396 q 586 461 582 434 q 590 503 590 488 q 568 571 590 547 q 507 594 546 594 q 390 536 439 594 q 323 373 342 477 l 257 0 l 38 0 l 222 1055 l 442 1055 l 370 648 q 492 746 431 714 q 619 777 553 777 q 766 722 714 777 q 817 568 817 668 q 814 520 817 546 q 806 462 811 493 "},"Ꙇ":{"x_min":82.125,"x_max":480.1875,"ha":544,"o":"m 438 1012 l 326 376 q 341 242 311 288 q 443 197 370 197 l 480 197 l 446 0 l 398 0 q 134 93 210 0 q 92 376 59 187 l 203 1012 l 438 1012 "},".":{"x_min":57.65625,"x_max":323.515625,"ha":475,"o":"m 103 262 l 323 262 l 278 0 l 57 0 l 103 262 "},";":{"x_min":-44.40625,"x_max":403.890625,"ha":500,"o":"m 97 262 l 317 262 l 281 55 l 85 -197 l -44 -197 l 60 55 l 97 262 m 183 759 l 403 759 l 358 497 l 138 497 l 183 759 "},"f":{"x_min":62.390625,"x_max":674.828125,"ha":543,"o":"m 674 1055 l 646 895 l 526 895 q 459 877 480 895 q 430 813 438 858 l 419 759 l 604 759 l 575 585 l 389 585 l 287 0 l 67 0 l 170 585 l 62 585 l 92 759 l 200 759 l 210 812 q 304 996 232 938 q 507 1055 375 1055 l 674 1055 "},"ꙇ":{"x_min":83.125,"x_max":406.9375,"ha":550,"o":"m 170 759 l 389 759 l 311 311 q 314 189 295 220 q 393 158 334 151 l 406 159 l 379 0 l 295 -1 q 118 78 172 -3 q 92 311 65 160 l 170 759 "},"A":{"x_min":-81.71875,"x_max":863.734375,"ha":967,"o":"m 613 184 l 249 184 l 159 0 l -81 0 l 433 1012 l 702 1012 l 863 0 l 639 0 l 613 184 m 338 368 l 582 368 l 528 758 l 338 368 "},"6":{"x_min":62.390625,"x_max":825.390625,"ha":869,"o":"m 452 499 q 338 436 382 499 q 293 271 293 372 q 321 178 293 211 q 397 144 348 144 q 511 207 466 144 q 556 365 556 269 q 529 465 556 430 q 452 499 502 499 m 825 986 l 792 798 q 690 843 739 828 q 591 858 640 858 q 407 790 478 858 q 322 600 337 722 q 420 651 369 634 q 527 668 470 668 q 711 594 639 668 q 782 405 782 520 q 672 98 782 218 q 388 -21 562 -21 q 147 76 233 -21 q 62 354 62 174 q 100 618 62 492 q 206 834 137 744 q 379 980 279 931 q 603 1029 478 1029 q 715 1018 661 1029 q 825 986 769 1007 "},"O":{"x_min":45.4375,"x_max":1017.328125,"ha":1062,"o":"m 769 597 q 720 779 769 716 q 579 841 672 841 q 375 719 457 841 q 292 415 292 598 q 340 233 292 298 q 474 169 388 169 q 599 202 545 169 q 693 299 654 235 q 749 438 729 361 q 769 597 769 516 m 613 1030 q 906 918 796 1030 q 1017 625 1017 806 q 983 392 1017 501 q 885 194 949 282 q 697 33 805 86 q 447 -19 588 -19 q 155 92 265 -19 q 45 385 45 204 q 79 619 45 510 q 177 817 112 729 q 364 978 255 925 q 613 1030 472 1030 "},"n":{"x_min":38.65625,"x_max":817.265625,"ha":890,"o":"m 806 462 l 725 0 l 505 0 l 575 396 q 586 461 582 434 q 590 503 590 488 q 568 571 590 547 q 507 594 546 594 q 390 536 439 594 q 323 373 342 477 l 257 0 l 38 0 l 171 759 l 391 759 l 370 648 q 492 746 431 714 q 619 777 553 777 q 766 722 714 777 q 817 568 817 668 q 814 520 817 546 q 806 462 811 493 "},"3":{"x_min":0,"x_max":796.234375,"ha":869,"o":"m 590 545 q 697 474 659 528 q 735 343 735 421 q 616 77 735 174 q 286 -19 496 -19 q 135 -7 206 -19 q 0 30 63 5 l 34 231 q 152 177 88 196 q 281 158 217 158 q 444 201 384 158 q 504 316 504 244 q 458 407 504 377 q 320 437 413 437 l 227 437 l 257 605 l 356 605 q 508 644 452 605 q 564 748 564 682 q 525 827 564 800 q 412 854 486 854 q 299 839 360 854 q 172 796 238 824 l 206 987 q 347 1020 278 1009 q 486 1030 417 1030 q 718 973 640 1030 q 796 804 796 916 q 742 635 796 703 q 590 545 688 568 "},"9":{"x_min":51.546875,"x_max":815.21875,"ha":869,"o":"m 51 22 l 83 209 q 186 164 137 179 q 284 149 235 149 q 468 217 398 149 q 553 408 539 285 q 456 357 506 373 q 349 340 406 340 q 166 414 238 340 q 94 602 94 488 q 205 909 94 790 q 489 1029 315 1029 q 729 931 644 1029 q 815 654 815 833 q 777 391 815 516 q 670 173 739 265 q 497 27 596 76 q 274 -21 398 -21 q 161 -10 216 -21 q 51 22 106 0 m 423 508 q 537 572 493 508 q 582 735 582 636 q 555 830 582 797 q 479 864 529 864 q 365 800 411 864 q 320 642 320 737 q 346 543 320 577 q 423 508 373 508 "},"ꙣ":{"x_min":-13.21875,"x_max":1208.265625,"ha":1175,"o":"m 660 585 l 506 585 l 502 564 q 382 173 458 316 l 587 173 l 660 585 m 87 173 q 205 284 161 199 q 292 615 249 370 l 317 759 l 1208 759 l 1181 609 l 882 609 l 806 173 l 919 173 l 856 -191 l 699 -191 l 733 0 l 176 0 l 143 -191 l -13 -191 l 50 173 l 87 173 "},"l":{"x_min":38.65625,"x_max":442.203125,"ha":428,"o":"m 222 1055 l 442 1055 l 257 0 l 38 0 l 222 1055 "},"¤":{"x_min":45.4375,"x_max":751.46875,"ha":795,"o":"m 265 181 l 138 41 l 45 145 l 171 286 q 145 355 154 319 q 137 434 137 392 q 146 514 137 477 q 173 581 155 550 l 46 720 l 139 825 l 265 685 q 328 715 295 705 q 398 725 361 725 q 464 715 431 725 q 532 687 497 706 l 658 828 l 751 723 l 625 583 q 651 508 642 545 q 659 434 659 471 q 651 356 659 392 q 623 288 642 320 l 750 148 l 656 44 l 529 184 q 469 154 501 164 q 398 144 436 144 q 330 153 363 144 q 265 181 297 162 m 398 286 q 493 329 454 286 q 532 434 532 372 q 493 540 532 497 q 398 583 454 583 q 304 540 343 583 q 265 434 265 497 q 303 328 265 371 q 398 286 341 286 "},"4":{"x_min":-1.6875,"x_max":793.1875,"ha":869,"o":"m 515 790 l 190 373 l 441 373 l 515 790 m 509 1012 l 776 1012 l 662 373 l 793 373 l 760 184 l 631 184 l 598 0 l 375 0 l 408 184 l -1 184 l 38 408 l 509 1012 "},"p":{"x_min":-12.203125,"x_max":845.75,"ha":895,"o":"m 278 109 l 207 -288 l -12 -288 l 171 759 l 391 759 l 370 648 q 476 746 421 714 q 596 777 531 777 q 778 696 711 777 q 845 474 845 615 q 822 304 845 387 q 754 153 798 221 q 629 24 699 68 q 479 -19 559 -19 q 360 11 409 -19 q 278 109 311 43 m 507 601 q 369 515 423 601 q 316 290 316 428 q 346 192 316 227 q 430 156 376 156 q 566 241 512 156 q 619 459 619 326 q 591 565 619 529 q 507 601 562 601 "},"à":{"x_min":21.703125,"x_max":763.671875,"ha":843,"o":"m 411 341 q 287 313 329 341 q 246 230 246 285 q 270 165 246 189 q 339 141 295 141 q 451 186 405 141 q 511 314 496 231 l 516 341 l 411 341 m 752 433 l 676 0 l 457 0 l 476 112 q 362 12 422 44 q 232 -19 302 -19 q 78 36 135 -19 q 21 187 21 92 q 122 409 21 332 q 413 486 223 486 l 542 486 l 545 505 q 546 518 546 514 q 547 526 547 522 q 509 593 547 571 q 396 616 471 616 q 264 600 328 616 q 142 554 201 585 l 174 739 q 315 768 243 758 q 463 777 387 777 q 689 719 615 777 q 763 543 763 661 q 760 492 763 520 q 752 433 758 465 m 446 1110 l 573 855 l 453 855 l 273 1110 l 446 1110 "},"Ü":{"x_min":84.78125,"x_max":988.84375,"ha":1015,"o":"m 204 1012 l 438 1012 l 332 406 q 323 348 326 373 q 320 304 320 323 q 353 205 320 238 q 448 172 385 172 q 579 225 534 172 q 647 405 625 278 l 754 1012 l 988 1012 l 882 405 q 732 81 843 181 q 415 -19 621 -19 q 169 57 253 -19 q 84 280 84 134 q 87 335 84 305 q 97 405 90 365 l 204 1012 m 433 1287 l 577 1287 l 549 1121 l 405 1121 l 433 1287 m 674 1287 l 820 1287 l 790 1121 l 646 1121 l 674 1287 "},"ó":{"x_min":45.4375,"x_max":813.875,"ha":859,"o":"m 468 604 q 328 518 383 604 q 274 301 274 433 q 303 191 274 229 q 389 153 333 153 q 529 239 474 153 q 584 458 584 325 q 555 566 584 529 q 468 604 525 604 m 486 777 q 726 691 638 777 q 813 457 813 605 q 786 289 813 370 q 706 141 758 208 q 559 21 644 61 q 369 -19 474 -19 q 132 66 219 -19 q 45 301 45 152 q 73 468 45 386 q 153 617 101 550 q 299 737 215 696 q 486 777 383 777 m 613 1110 l 792 1110 l 524 855 l 401 855 l 613 1110 "}}}
